<?xml version="1.0" encoding="UTF-8"?>
<svg xmlns="http://www.w3.org/2000/svg" viewBox="0 0 279.89 279.94">
  <defs>
    <style>
      .cls-1, .cls-2 {
        stroke-miterlimit: 10;
      }

      .cls-1, .cls-2, .cls-3, .cls-4, .cls-5, .cls-6 {
        stroke-width: 3.93px;
      }

      .cls-1, .cls-3, .cls-5 {
        stroke: #005839;
      }

      .cls-1, .cls-3, .cls-7 {
        fill: #005839;
      }

      .cls-2 {
        stroke: #98c667;
      }

      .cls-2, .cls-8 {
        fill: #fff;
      }

      .cls-3, .cls-4, .cls-5, .cls-6 {
        stroke-linecap: round;
        stroke-linejoin: round;
      }

      .cls-4 {
        stroke: #01472c;
      }

      .cls-4, .cls-5, .cls-6 {
        fill: none;
      }

      .cls-8, .cls-7, .cls-9 {
        stroke-width: 0px;
      }

      .cls-9 {
        fill: #01472c;
      }

      .cls-6 {
        stroke: #88ca52;
      }
    </style>
  </defs>
  <g id="katman_2" data-name="katman 2">
    <path class="cls-7" d="m279.94,139.97c0,4.2-.19,8.39-.57,12.58-.39,4.32-.98,8.62-1.77,12.89-.81,4.39-1.84,8.75-3.07,13.04-1.26,4.41-2.74,8.75-4.42,13.01-3.47,8.77-7.82,17.17-12.99,25.07-5.27,8.07-11.37,15.57-18.18,22.38-6.81,6.81-14.31,12.91-22.38,18.18-7.9,5.16-16.3,9.52-25.07,12.99-4.26,1.69-8.6,3.16-13.01,4.42-4.3,1.23-8.65,2.25-13.04,3.07-4.27.79-8.57,1.38-12.89,1.77-4.18.38-8.38.57-12.58.57s-8.39-.19-12.58-.57c-4.32-.39-8.62-.98-12.89-1.77-4.39-.81-8.75-1.84-13.04-3.07-4.41-1.26-8.75-2.74-13.01-4.42-8.77-3.47-17.17-7.82-25.07-12.99-8.07-5.27-15.57-11.37-22.38-18.18-6.81-6.81-12.91-14.31-18.18-22.38-5.16-7.9-9.52-16.3-12.99-25.07-1.69-4.26-3.16-8.6-4.42-13.01-1.23-4.3-2.25-8.65-3.07-13.04-.79-4.27-1.38-8.57-1.77-12.89-.38-4.18-.57-8.38-.57-12.58s.19-8.39.57-12.58c.39-4.32.98-8.62,1.77-12.89.81-4.39,1.84-8.75,3.07-13.04,1.26-4.41,2.74-8.75,4.42-13.01,3.47-8.77,7.82-17.17,12.99-25.07,5.27-8.07,11.37-15.57,18.18-22.38,6.81-6.81,14.31-12.91,22.38-18.18,7.9-5.16,16.3-9.52,25.07-12.99,4.26-1.69,8.6-3.16,13.01-4.42,4.3-1.23,8.65-2.25,13.04-3.07,4.27-.79,8.57-1.38,12.89-1.77,4.18-.38,8.38-.57,12.58-.57s8.39.19,12.58.57c4.32.39,8.62.98,12.89,1.77,4.39.81,8.75,1.84,13.04,3.07,4.41,1.26,8.75,2.74,13.01,4.42,8.77,3.47,17.17,7.82,25.07,12.99,8.07,5.27,15.57,11.37,22.38,18.18s12.91,14.31,18.18,22.38c5.16,7.9,9.52,16.3,12.99,25.07,1.69,4.26,3.16,8.6,4.42,13.01,1.23,4.3,2.25,8.65,3.07,13.04.79,4.27,1.38,8.57,1.77,12.89.38,4.18.57,8.38.57,12.58Z"/>
    <path class="cls-8" d="m239.3,139.97c0,2.98-.13,5.96-.4,8.93-.28,3.07-.7,6.12-1.26,9.15-1.17,6.32-2.95,12.51-5.32,18.49-2.47,6.23-5.55,12.19-9.22,17.79-3.74,5.72-8.07,11.05-12.9,15.88-4.84,4.84-10.16,9.16-15.88,12.9-5.61,3.66-11.57,6.75-17.79,9.22-5.98,2.37-12.17,4.15-18.49,5.32-3.03.56-6.08.98-9.15,1.26-2.97.27-5.95.4-8.93.4s-5.96-.13-8.93-.4c-3.07-.28-6.12-.7-9.15-1.26-6.32-1.17-12.51-2.95-18.49-5.32-6.23-2.46-12.19-5.55-17.79-9.22-5.72-3.74-11.05-8.07-15.88-12.9-4.84-4.84-9.16-10.16-12.9-15.88-3.66-5.61-6.75-11.57-9.22-17.79-2.37-5.98-4.15-12.17-5.32-18.49-.56-3.03-.98-6.08-1.26-9.15-.27-2.97-.4-5.95-.4-8.93s.13-5.96.4-8.93c.28-3.07.7-6.12,1.26-9.15,1.17-6.32,2.95-12.51,5.32-18.49,2.46-6.23,5.55-12.19,9.22-17.79,3.74-5.72,8.07-11.05,12.9-15.88,4.84-4.84,10.16-9.16,15.88-12.9,5.61-3.66,11.57-6.75,17.79-9.22,5.98-2.37,12.17-4.15,18.49-5.32,3.03-.56,6.08-.98,9.15-1.26,2.97-.27,5.95-.4,8.93-.4s5.96.13,8.93.4c3.07.28,6.12.7,9.15,1.26,6.32,1.17,12.51,2.95,18.49,5.32,6.23,2.47,12.19,5.55,17.79,9.22,5.72,3.74,11.05,8.07,15.88,12.9,4.84,4.84,9.16,10.16,12.9,15.88,3.66,5.61,6.75,11.57,9.22,17.79,2.37,5.98,4.15,12.17,5.32,18.49.56,3.03.98,6.08,1.26,9.15.27,2.97.4,5.95.4,8.93Z"/>
    <path class="cls-2" d="m239.3,139.97c0,2.98-.13,5.96-.4,8.93-.28,3.07-.7,6.12-1.26,9.15-1.17,6.32-2.95,12.51-5.32,18.49-2.47,6.23-5.55,12.19-9.22,17.79-3.74,5.72-8.07,11.05-12.9,15.88-4.84,4.84-10.16,9.16-15.88,12.9-5.61,3.66-11.57,6.75-17.79,9.22-5.98,2.37-12.17,4.15-18.49,5.32-3.03.56-6.08.98-9.15,1.26-2.97.27-5.95.4-8.93.4s-5.96-.13-8.93-.4c-3.07-.28-6.12-.7-9.15-1.26-6.32-1.17-12.51-2.95-18.49-5.32-6.23-2.46-12.19-5.55-17.79-9.22-5.72-3.74-11.05-8.07-15.88-12.9-4.84-4.84-9.16-10.16-12.9-15.88-3.66-5.61-6.75-11.57-9.22-17.79-2.37-5.98-4.15-12.17-5.32-18.49-.56-3.03-.98-6.08-1.26-9.15-.27-2.97-.4-5.95-.4-8.93s.13-5.96.4-8.93c.28-3.07.7-6.12,1.26-9.15,1.17-6.32,2.95-12.51,5.32-18.49,2.46-6.23,5.55-12.19,9.22-17.79,3.74-5.72,8.07-11.05,12.9-15.88,4.84-4.84,10.16-9.16,15.88-12.9,5.61-3.66,11.57-6.75,17.79-9.22,5.98-2.37,12.17-4.15,18.49-5.32,3.03-.56,6.08-.98,9.15-1.26,2.97-.27,5.95-.4,8.93-.4s5.96.13,8.93.4c3.07.28,6.12.7,9.15,1.26,6.32,1.17,12.51,2.95,18.49,5.32,6.23,2.47,12.19,5.55,17.79,9.22,5.72,3.74,11.05,8.07,15.88,12.9,4.84,4.84,9.16,10.16,12.9,15.88,3.66,5.61,6.75,11.57,9.22,17.79,2.37,5.98,4.15,12.17,5.32,18.49.56,3.03.98,6.08,1.26,9.15.27,2.97.4,5.95.4,8.93Z"/>
  </g>
  <g id="Aucune">
    <polygon class="cls-9" points="139.94 119.55 134.59 112.77 130.77 105.99 128.48 99.21 127.72 92.42 128.48 85.64 130.77 78.86 134.59 72.08 139.94 65.3 145.29 72.08 149.11 78.86 151.4 85.64 152.17 92.42 151.4 99.21 149.11 105.99 145.29 112.77 139.94 119.55"/>
    <path class="cls-5" d="m151.69,177.52c2.14-2.95,6.48-5.59,13.01-7.92,6.86-2.45,12.58-5.97,17.15-10.58s6.15-9.33,4.75-14.16c-1.4-4.83-4.76-6.88-10.09-6.15-3.51.48-5.46,1.98-5.86,4.49"/>
    <path class="cls-6" d="m128.19,177.52c-2.14-2.95-6.48-5.59-13.01-7.92-6.86-2.45-12.58-5.97-17.15-10.58s-6.15-9.33-4.75-14.16c1.4-4.83,4.76-6.88,10.09-6.15,3.51.48,5.46,1.98,5.86,4.49"/>
    <path class="cls-5" d="m160.91,213.72c-1.05-2.06-2.93-4.78-5.65-8.16-2.7-3.35-5.39-6.69-8.09-10.04-.97-1.2-1.45-2.98-1.45-5.33s.22-4.18.67-5.48,2.16-3.64,5.15-7.01c2.64-2.97,5.27-5.95,7.91-8.93,2.29-2.58,4.36-5.74,6.22-9.47,1.86-3.73,3.82-10.51,5.88-20.35"/>
    <path class="cls-4" d="m155.96,124.84c9.61-19.69,24.7-25.78,45.28-18.27-9.61,19.69-24.7,25.78-45.28,18.27Z"/>
    <polygon class="cls-1" points="155.96 124.84 159.82 118.1 164.19 112.62 169.08 108.43 174.48 105.51 180.4 103.86 186.83 103.49 193.78 104.4 201.24 106.58 197.38 113.33 193 118.8 188.12 122.99 182.71 125.91 176.8 127.56 170.36 127.93 163.42 127.02 155.96 124.84"/>
    <path class="cls-4" d="m123.93,124.84c-3.04-21.7-15.51-32.16-37.4-31.39,3.04,21.7,15.51,32.16,37.4,31.39Z"/>
    <polygon class="cls-1" points="123.93 124.84 116.16 124.61 109.28 123.32 103.27 120.98 98.16 117.58 93.92 113.13 90.57 107.62 88.11 101.07 86.53 93.46 94.3 93.69 101.18 94.98 107.18 97.33 112.3 100.72 116.53 105.17 119.88 110.68 122.35 117.23 123.93 124.84"/>
    <path class="cls-3" d="m139.94,119.55c16.3-18.08,16.3-36.17,0-54.25-16.3,18.08-16.3,36.17,0,54.25Z"/>
    <line class="cls-6" x1="139.94" y1="137.3" x2="139.94" y2="92.42"/>
    <path class="cls-5" d="m171.55,138.82c-1.99-1.13-12.53-1.65-31.6-1.57-19.08,0-29.61.57-31.59,1.7.04.17.07.34.11.51"/>
    <path class="cls-5" d="m123.93,124.84c8.36,1.28,13.7,5.44,16.01,12.46"/>
    <path class="cls-5" d="m155.96,124.84c-8.36,1.28-13.7,5.44-16.01,12.46"/>
    <path class="cls-6" d="m118.98,213.72c7.15.78,14.14,1.17,20.96,1.17s13.81-.39,20.96-1.17"/>
    <path class="cls-5" d="m108.46,139.47c2.02,9.56,3.94,16.18,5.77,19.84,1.86,3.73,3.93,6.89,6.22,9.47,2.64,2.98,5.27,5.95,7.91,8.93,2.98,3.37,4.7,5.7,5.15,7.01s.67,3.13.67,5.48-.48,4.13-1.45,5.33c-2.7,3.35-5.39,6.69-8.09,10.04-2.72,3.38-4.61,6.1-5.65,8.16"/>
  </g>
  <g id="text">
    <g>
      <path class="cls-8" d="m32.23,105.29l-9.16-3-1.18,3.58-1.3-.43,2.84-8.65,1.3.43-1.18,3.58,9.16,3-.49,1.48Z"/>
      <path class="cls-8" d="m36.85,93.18l-.69,1.41-9.89-4.82.69-1.41,9.89,4.82Zm-7.13-10.5l.69-1.41,9.89,4.82-.69,1.41-9.89-4.82Zm5.55,2.54l-2.9,5.95-1.23-.6,2.9-5.95,1.23.6Z"/>
      <path class="cls-8" d="m43.95,77.42l3.59-5.31,1.13.77-4.47,6.62-9.12-6.16,4.35-6.43,1.13.77-3.47,5.13,6.85,4.63Zm-4.13-2.62l3.17-4.69,1.11.75-3.17,4.69-1.11-.75Z"/>
      <path class="cls-8" d="m64.33,55.58l-.69-.82.65-6.19c.06-.54.07-.99.04-1.34-.04-.34-.11-.63-.22-.87s-.23-.44-.38-.61c-.36-.43-.8-.65-1.32-.64-.51,0-1.06.26-1.65.75-.45.38-.79.79-1.03,1.24-.24.45-.35.95-.36,1.48l-1.41-.02c-.02-.68.14-1.36.5-2.03.36-.68.86-1.29,1.51-1.83.59-.49,1.17-.83,1.77-1,.59-.18,1.15-.19,1.69-.03s1,.47,1.41.95c.23.27.42.57.57.9s.25.72.3,1.19c.05.47.04,1.04-.03,1.73l-.58,5.52-.68-.23,5.09-4.28.88,1.05-6.05,5.09Z"/>
      <path class="cls-8" d="m78.78,44.73c-.72.47-1.48.7-2.29.7s-1.6-.25-2.39-.74c-.79-.49-1.5-1.24-2.15-2.24-.65-1-1.04-1.96-1.16-2.88-.13-.92-.03-1.74.3-2.48.33-.74.85-1.34,1.57-1.81.71-.46,1.47-.69,2.29-.69s1.61.24,2.39.74c.78.49,1.5,1.24,2.15,2.24.65,1,1.04,1.96,1.17,2.88.13.91.03,1.74-.3,2.48-.33.74-.85,1.34-1.57,1.8Zm-.76-1.17c.48-.31.82-.72,1.02-1.22s.22-1.08.09-1.74c-.14-.66-.46-1.38-.96-2.17s-1.04-1.37-1.58-1.76c-.55-.39-1.09-.6-1.63-.63-.54-.03-1.05.12-1.53.43-.48.31-.83.72-1.02,1.23s-.23,1.09-.09,1.75c.14.66.46,1.38.96,2.17s1.04,1.37,1.58,1.76c.55.39,1.09.6,1.63.63.54.02,1.05-.12,1.54-.43Z"/>
      <path class="cls-8" d="m87.49,39.4l-.46-.96,2.15-5.84c.19-.51.32-.94.37-1.29.05-.34.05-.64,0-.89-.05-.25-.12-.48-.22-.69-.25-.51-.62-.82-1.12-.94-.5-.12-1.09-.01-1.78.32-.53.26-.96.57-1.3.95-.34.38-.58.83-.71,1.35l-1.37-.37c.14-.66.47-1.28.98-1.85.51-.57,1.15-1.04,1.91-1.4.69-.33,1.34-.51,1.96-.54.62-.02,1.16.1,1.64.38.48.28.86.7,1.13,1.27.16.32.27.66.33,1.01.07.35.06.76,0,1.22-.07.46-.22,1.02-.45,1.67l-1.92,5.2-.61-.39,5.99-2.89.59,1.23-7.12,3.44Z"/>
      <path class="cls-8" d="m103.26,32.78c-.73.25-1.48.38-2.25.39-.77,0-1.44-.1-2-.34l.28-1.41c.46.21,1,.32,1.63.34.63.02,1.25-.08,1.88-.3.79-.27,1.34-.65,1.65-1.13.31-.48.37-1.01.17-1.57-.13-.39-.34-.69-.63-.91s-.69-.33-1.2-.33c-.51,0-1.17.15-1.97.42l-2.36.81-1.32-5.63,5.87-2.02.44,1.29-5.32,1.83.52-.99,1.05,4.44-1.02-.45,2.01-.69c1.04-.36,1.92-.51,2.65-.46.73.05,1.31.26,1.76.63.45.37.78.87.99,1.48.2.59.25,1.19.13,1.78s-.42,1.13-.9,1.62c-.48.49-1.17.89-2.06,1.2Z"/>
      <path class="cls-8" d="m134.01,26.75c-.84.05-1.65-.04-2.42-.25s-1.4-.51-1.86-.9l.51-1.26c.44.34.99.62,1.65.82.66.21,1.34.29,2.04.25.64-.04,1.15-.14,1.54-.31.39-.17.67-.39.85-.65.17-.27.25-.56.23-.89-.02-.38-.16-.67-.42-.89-.26-.22-.59-.38-.99-.5-.4-.12-.84-.22-1.31-.3s-.96-.18-1.44-.29-.93-.27-1.33-.47c-.4-.2-.74-.48-1-.83-.26-.36-.41-.83-.44-1.42-.03-.56.09-1.09.36-1.59.27-.49.71-.9,1.32-1.22.61-.32,1.39-.51,2.35-.56.64-.04,1.28.01,1.91.15.64.13,1.19.34,1.67.63l-.45,1.28c-.49-.29-1-.49-1.53-.6-.53-.11-1.04-.16-1.53-.13-.62.03-1.12.14-1.51.32-.39.18-.67.4-.84.68-.17.27-.24.57-.23.89.02.39.16.69.42.91.26.22.59.38.99.5s.84.21,1.31.3c.48.08.96.18,1.44.29.48.11.93.26,1.33.46.4.2.74.47,1,.83.26.35.41.82.44,1.39.03.55-.09,1.08-.37,1.57-.28.49-.72.9-1.34,1.22-.62.32-1.41.51-2.37.56Z"/>
      <path class="cls-8" d="m149.46,26.93c-1.44-.11-2.54-.62-3.3-1.51s-1.08-2.13-.95-3.72l.5-6.24,1.57.12-.49,6.17c-.1,1.22.1,2.14.59,2.74s1.23.95,2.21,1.03c.99.08,1.78-.14,2.36-.66.58-.52.92-1.39,1.02-2.62l.49-6.17,1.52.12-.5,6.24c-.13,1.59-.63,2.76-1.52,3.52s-2.05,1.08-3.51.97Z"/>
      <path class="cls-8" d="m164.7,29.19c-.82-.18-1.57-.48-2.27-.89-.69-.41-1.21-.87-1.55-1.36l.83-1.07c.33.45.79.86,1.37,1.23.58.37,1.22.64,1.9.79.62.14,1.15.18,1.57.12.42-.06.75-.19.99-.4.24-.21.39-.47.46-.79.08-.37.03-.69-.17-.97-.19-.28-.46-.53-.82-.75s-.75-.43-1.19-.64c-.44-.2-.88-.43-1.31-.67-.44-.24-.82-.51-1.16-.81-.34-.3-.58-.66-.74-1.07-.16-.41-.17-.91-.05-1.48.12-.55.38-1.03.77-1.43.39-.4.93-.68,1.6-.83.67-.15,1.48-.12,2.42.09.62.14,1.23.35,1.8.65.58.3,1.06.65,1.44,1.06l-.78,1.12c-.39-.41-.83-.74-1.31-.99-.48-.25-.96-.43-1.44-.53-.6-.13-1.12-.16-1.54-.1-.42.07-.75.21-.99.43-.24.22-.39.48-.46.8-.08.38-.03.71.16.99.19.28.46.53.82.74.35.22.75.43,1.19.64.44.21.87.43,1.31.67.44.23.82.5,1.16.8s.58.65.74,1.06c.16.41.17.9.05,1.46-.12.54-.38,1.01-.78,1.42-.4.4-.94.67-1.62.82-.68.15-1.49.12-2.43-.09Z"/>
      <path class="cls-8" d="m177.37,32.61l3.2-9.09-3.56-1.25.45-1.29,8.58,3.02-.45,1.29-3.56-1.25-3.2,9.09-1.47-.52Z"/>
      <path class="cls-8" d="m186.52,36.06l9.42-7.56,1.39.7-.52,12.07-1.47-.75.61-11.04.56.29-8.55,7.01-1.44-.73Zm3.14-1.49l.95-.93,5.52,2.8-.16,1.33-6.31-3.2Z"/>
      <path class="cls-8" d="m201.9,44.55l6.04-9.2,1.31.86-6.04,9.2-1.31-.86Z"/>
      <path class="cls-8" d="m209.55,49.83l7.06-8.44.99.83-.22,11.6-.52-.43,5.8-6.93,1.21,1.01-7.06,8.44-.99-.83.22-11.6.52.43-5.8,6.93-1.21-1.01Z"/>
      <path class="cls-8" d="m221.18,60.03l11.52-3.62,1.04,1.16-4.87,11.06-1.1-1.23,4.58-10.06.42.47-10.51,3.43-1.08-1.21Zm3.46-.25l1.22-.52,4.13,4.62-.63,1.18-4.71-5.27Z"/>
      <path class="cls-8" d="m232.44,73.42l9.15-6.11,2.74,4.1c.7,1.05,1.03,2.01.99,2.85-.04.85-.43,1.52-1.16,2.01-.5.33-.99.5-1.48.5s-.95-.12-1.38-.37-.8-.6-1.09-1.03l.55-.03c.35.52.57,1.05.65,1.57.08.52.03,1.02-.17,1.49-.2.47-.56.88-1.08,1.23-.78.52-1.59.64-2.41.34-.82-.3-1.62-1.03-2.4-2.19l-2.92-4.37Zm1.93.6l2.01,3.01c.48.72.97,1.19,1.47,1.42s1.01.16,1.53-.19c.53-.35.79-.81.78-1.35-.01-.55-.26-1.18-.74-1.9l-2.09-3.12,1.06-.71,1.87,2.8c.44.66.91,1.1,1.4,1.3.49.2.98.14,1.46-.18.49-.33.73-.75.73-1.28s-.22-1.12-.66-1.79l-1.79-2.68-7.03,4.7Z"/>
      <path class="cls-8" d="m240.98,87.27l9.88-4.85.69,1.41-8.65,4.25,2.63,5.35-1.23.6-3.32-6.76Z"/>
      <path class="cls-8" d="m248.43,100.81l2.08,6.07-1.29.44-2.59-7.55,10.41-3.56,2.51,7.35-1.29.44-2.01-5.86-7.82,2.68Zm4.58-1.72l1.83,5.35-1.26.43-1.83-5.35,1.26-.43Z"/>
    </g>
    <g>
      <path class="cls-8" d="m18.44,174.8l10.56-3.09.44,1.51-10.56,3.09-.44-1.51Z"/>
      <path class="cls-8" d="m21.6,184.63l10.14-4.27.5,1.19-5.5,10.22-.26-.62,8.33-3.51.61,1.45-10.14,4.27-.5-1.19,5.51-10.22.26.62-8.33,3.51-.61-1.45Z"/>
      <path class="cls-8" d="m29.36,201.36l9.41-5.7.67,1.1-3.96,10.91-.35-.58,7.73-4.69.81,1.34-9.41,5.71-.67-1.1,3.96-10.91.35.58-7.73,4.69-.81-1.34Z"/>
      <path class="cls-8" d="m42.55,220.69c-.54-.65-.92-1.33-1.16-2.07-.24-.73-.33-1.46-.28-2.19.06-.73.25-1.42.59-2.08.34-.66.82-1.25,1.44-1.76s1.29-.88,2-1.09,1.43-.27,2.16-.2c.73.08,1.42.3,2.1.67.67.37,1.28.88,1.82,1.53.53.65.92,1.33,1.16,2.06.24.73.33,1.45.28,2.18-.06.73-.26,1.42-.6,2.08-.34.66-.83,1.25-1.45,1.76-.63.52-1.3.89-2.01,1.1-.71.21-1.43.28-2.15.2-.73-.08-1.42-.3-2.09-.68-.67-.37-1.27-.88-1.81-1.52Zm1.07-.9c.39.48.84.85,1.33,1.11.49.27,1.01.42,1.55.47s1.07,0,1.61-.17c.53-.16,1.03-.44,1.5-.83.47-.39.83-.83,1.08-1.32.25-.49.41-1.01.46-1.55.05-.54,0-1.08-.17-1.61-.17-.53-.45-1.04-.85-1.51-.39-.47-.83-.83-1.32-1.1-.49-.27-1.01-.42-1.56-.47-.55-.05-1.08,0-1.61.16-.53.16-1.03.43-1.49.82-.47.39-.83.83-1.09,1.32s-.41,1.01-.46,1.55c-.05.54.01,1.08.18,1.61s.45,1.03.84,1.5Z"/>
      <path class="cls-8" d="m54.38,232.97l3.82-11.4,1.26,1.14-3.54,10.51-.72-.66,10.15-4.5,1.16,1.06-10.97,4.89-1.15-1.05Z"/>
      <path class="cls-8" d="m63.46,240.74l10.35-6.22,1.28.88-2.14,11.89-1.36-.94,2.09-10.86.52.36-9.41,5.8-1.33-.92Zm3.31-1.06l1.06-.79,5.1,3.52-.34,1.29-5.82-4.02Z"/>
      <path class="cls-8" d="m81.14,251.87l4.44-8.55-3.35-1.74.63-1.21,8.08,4.19-.63,1.21-3.35-1.74-4.44,8.55-1.38-.72Z"/>
      <path class="cls-8" d="m92.38,257.09l4.08-10.22,1.46.58-4.08,10.22-1.46-.58Z"/>
      <path class="cls-8" d="m106.85,262.11c-.81-.22-1.52-.56-2.14-1.02-.62-.46-1.12-1-1.49-1.63-.37-.63-.61-1.31-.72-2.04-.11-.73-.05-1.49.16-2.27.21-.78.55-1.46,1.01-2.04.46-.58,1.01-1.05,1.65-1.4.64-.35,1.34-.57,2.1-.66s1.55-.02,2.37.2c.81.22,1.52.56,2.14,1.01.62.45,1.11,1,1.48,1.62.37.63.61,1.31.71,2.05.1.74.04,1.5-.17,2.28-.21.79-.55,1.47-1,2.06-.46.58-1,1.05-1.64,1.4-.64.35-1.34.57-2.1.65s-1.55.01-2.35-.21Zm.35-1.35c.6.16,1.17.21,1.73.14.56-.07,1.07-.23,1.54-.5.47-.27.87-.62,1.22-1.06.34-.44.59-.95.75-1.54.16-.59.2-1.15.13-1.7-.07-.55-.25-1.06-.51-1.53s-.62-.88-1.07-1.22c-.45-.34-.97-.59-1.56-.75-.59-.16-1.16-.2-1.71-.14-.56.07-1.07.24-1.55.51-.48.27-.88.63-1.22,1.06-.34.43-.59.95-.75,1.53-.16.59-.2,1.16-.13,1.71.07.55.25,1.06.52,1.53.27.47.63.88,1.08,1.21.45.34.96.59,1.55.75Z"/>
      <path class="cls-8" d="m120.48,264.95l1.27-10.93,1.28.15,6.18,9.82-.67-.08,1.05-8.98,1.56.18-1.27,10.93-1.28-.15-6.18-9.82.67.08-1.05,8.98-1.56-.18Z"/>
      <path class="cls-8" d="m162.51,264.48c-.83.14-1.61.14-2.36-.02-.74-.15-1.42-.44-2.01-.85s-1.1-.93-1.5-1.55c-.41-.62-.68-1.33-.82-2.14-.14-.81-.12-1.57.05-2.29s.48-1.38.9-1.97c.43-.59.97-1.08,1.62-1.48.65-.39,1.39-.66,2.21-.8.84-.14,1.63-.14,2.39.03s1.43.48,2.02.95l-.84,1.15c-.49-.36-1.01-.6-1.56-.73-.55-.12-1.12-.13-1.71-.03-.61.11-1.16.31-1.64.6-.49.3-.89.66-1.21,1.1-.32.44-.54.93-.66,1.48s-.13,1.12-.03,1.72c.1.6.31,1.14.6,1.61s.67.86,1.12,1.17c.45.31.95.52,1.51.63.56.12,1.14.12,1.75.02.59-.1,1.12-.3,1.6-.6s.89-.71,1.22-1.22l1.18.8c-.4.64-.93,1.17-1.59,1.58-.66.41-1.41.69-2.26.84Z"/>
      <path class="cls-8" d="m175.77,261.26l-1.5.48-3.38-10.47,1.5-.48,3.38,10.47Zm4.64-6.65l-6.3,2.03-.42-1.3,6.3-2.03.42,1.3Zm-2.01-5.76l1.5-.48,3.38,10.47-1.5.48-3.38-10.47Z"/>
      <path class="cls-8" d="m190.09,256.17l-.34-12.07,1.4-.68,9.31,7.7-1.48.72-8.43-7.15.56-.28.44,11.05-1.46.71Zm.7-3.4l-.17-1.32,5.57-2.71.96.93-6.36,3.1Z"/>
      <path class="cls-8" d="m206.62,247.41l-6.03-9.2,1.31-.86,5.28,8.06,4.98-3.27.75,1.14-6.3,4.13Z"/>
      <path class="cls-8" d="m218.72,238.87l-7.06-8.44,1.21-1.01,6.18,7.39,4.57-3.82.88,1.05-5.77,4.83Z"/>
      <path class="cls-8" d="m229.86,226.88l4.38-4.68,1,.93-5.46,5.83-8.03-7.52,5.31-5.67,1,.93-4.23,4.52,6.04,5.65Zm-3.67-3.24l3.87-4.13.98.91-3.87,4.13-.98-.91Z"/>
      <path class="cls-8" d="m240.41,216.84l-8.98-6.36.75-1.05,11.58-.71-.39.55-7.37-5.23.91-1.28,8.98,6.36-.75,1.05-11.58.71.39-.55,7.37,5.23-.91,1.28Z"/>
      <path class="cls-8" d="m252.89,197.07c-.39.76-.87,1.39-1.44,1.9-.57.51-1.2.88-1.9,1.11-.69.23-1.41.33-2.15.28-.74-.05-1.47-.26-2.2-.63s-1.33-.84-1.8-1.42c-.47-.57-.81-1.21-1.03-1.91-.21-.7-.28-1.43-.2-2.2.08-.76.31-1.52.7-2.29.4-.77.89-1.42,1.47-1.93s1.24-.87,1.97-1.06l.42,1.31c-.6.2-1.11.49-1.53.87-.42.38-.78.84-1.06,1.39-.29.56-.46,1.13-.52,1.7-.06.58-.01,1.12.15,1.65.16.52.42,1,.78,1.42s.82.78,1.36,1.06c.53.27,1.08.43,1.64.48.56.05,1.1-.02,1.62-.19.52-.18.99-.45,1.42-.83.43-.38.79-.85,1.08-1.41.27-.52.44-1.07.53-1.63.08-.56.04-1.15-.13-1.76l1.47-.25c.16.7.18,1.42.06,2.18s-.36,1.48-.71,2.17Zm-.22-3.1l-3.64-1.86.69-1.34,3.82,1.96-.87,1.25Z"/>
      <path class="cls-8" d="m257.25,183.42l2.13-6.05,1.29.45-2.65,7.53-10.38-3.65,2.58-7.32,1.29.45-2.06,5.84,7.8,2.75Zm-4.66-1.49l1.88-5.34,1.26.44-1.88,5.34-1.26-.44Z"/>
    </g>
  </g>
</svg>