<?xml version="1.0" encoding="UTF-8"?>
<svg id="katman_1" data-name="katman 1" xmlns="http://www.w3.org/2000/svg" viewBox="0 0 2646.8 2633.37">
  <defs>
    <style>
      .cls-1 {
        stroke: #8bc056;
      }

      .cls-1, .cls-2, .cls-3, .cls-4, .cls-5, .cls-6 {
        stroke-linejoin: round;
      }

      .cls-1, .cls-2, .cls-3, .cls-4, .cls-5, .cls-6, .cls-7 {
        fill: none;
        stroke-linecap: round;
      }

      .cls-1, .cls-2, .cls-3, .cls-7, .cls-8 {
        stroke-width: 27.56px;
      }

      .cls-2 {
        stroke: #02472c;
      }

      .cls-3, .cls-7, .cls-8 {
        stroke: #03593a;
      }

      .cls-4 {
        stroke: #fbf4df;
      }

      .cls-4, .cls-5, .cls-6 {
        stroke-width: 22.08px;
      }

      .cls-5 {
        stroke: #98c667;
      }

      .cls-6 {
        stroke: #005839;
      }

      .cls-8 {
        stroke-miterlimit: 10;
      }

      .cls-8, .cls-9 {
        fill: #03593a;
      }

      .cls-10 {
        fill: #98c667;
      }

      .cls-10, .cls-11, .cls-12, .cls-9 {
        stroke-width: 0px;
      }

      .cls-11 {
        fill: #fbf4df;
      }

      .cls-12 {
        fill: #005839;
      }
    </style>
  </defs>
  <g>
    <polygon class="cls-9" points="1322.77 1064.62 1282.77 1013.9 1254.2 963.19 1237.06 912.47 1231.35 861.75 1237.06 811.03 1254.2 760.32 1282.77 709.6 1322.77 658.88 1362.77 709.6 1391.34 760.32 1408.48 811.03 1414.19 861.75 1408.48 912.47 1391.34 963.19 1362.77 1013.9 1322.77 1064.62"/>
    <path class="cls-3" d="m1410.63,1498.16c16.01-22.06,48.44-41.79,97.28-59.2,51.33-18.29,94.07-44.67,128.23-79.14,34.16-34.47,46.01-69.77,35.56-105.91-10.45-36.14-35.61-51.47-75.46-46.02-26.22,3.59-40.82,14.77-43.8,33.56"/>
    <path class="cls-1" d="m1234.91,1498.16c-16.01-22.06-48.44-41.79-97.28-59.2-51.33-18.29-94.07-44.67-128.23-79.14-34.16-34.47-46.01-69.77-35.56-105.91,10.45-36.14,35.6-51.47,75.46-46.02,26.22,3.59,40.82,14.77,43.8,33.56"/>
    <path class="cls-3" d="m1479.54,1768.86c-7.83-15.41-21.91-35.75-42.26-61.01-20.16-25.03-40.32-50.05-60.48-75.08-7.25-9-10.88-22.29-10.88-39.85s1.68-31.23,5.03-40.99c3.35-9.76,16.18-27.24,38.49-52.42,19.71-22.25,39.42-44.5,59.13-66.75,17.11-19.31,32.61-42.92,46.51-70.81,13.9-27.9,28.55-78.63,43.95-152.21"/>
    <path class="cls-2" d="m1442.52,1104.19c71.85-147.27,184.73-192.81,338.65-136.6-71.84,147.27-184.73,192.8-338.65,136.6Z"/>
    <polygon class="cls-8" points="1442.52 1104.19 1471.39 1053.73 1504.1 1012.81 1540.66 981.43 1581.07 959.59 1625.32 947.28 1673.42 944.51 1725.37 951.29 1781.17 967.6 1752.3 1018.05 1719.59 1058.97 1683.03 1090.36 1642.62 1112.2 1598.37 1124.5 1550.27 1127.27 1498.32 1120.5 1442.52 1104.19"/>
    <path class="cls-2" d="m1203.02,1104.19c-22.73-162.28-115.97-240.52-279.73-234.72,22.73,162.28,115.97,240.52,279.73,234.72Z"/>
    <polygon class="cls-8" points="1203.02 1104.19 1144.92 1102.43 1093.42 1092.78 1048.54 1075.26 1010.27 1049.86 978.61 1016.58 953.56 975.42 935.12 926.39 923.29 869.47 981.4 871.23 1032.89 880.88 1077.77 898.4 1116.04 923.8 1147.71 957.08 1172.75 998.24 1191.19 1047.27 1203.02 1104.19"/>
    <path class="cls-7" d="m1322.77,1064.62c121.89-135.24,121.89-270.49,0-405.73-121.89,135.24-121.89,270.49,0,405.73Z"/>
    <line class="cls-1" x1="1322.77" y1="1197.38" x2="1322.77" y2="861.75"/>
    <path class="cls-1" d="m1166,1768.86c53.48,5.84,105.74,8.75,156.77,8.75s103.28-2.92,156.77-8.75"/>
    <path class="cls-3" d="m1087.32,1213.55c15.1,71.52,29.49,120.98,43.14,148.39,13.9,27.9,29.41,51.5,46.51,70.81,19.71,22.25,39.42,44.5,59.13,66.75,22.31,25.19,35.14,42.66,38.49,52.42,3.35,9.76,5.03,23.43,5.03,40.99s-3.63,30.85-10.88,39.85c-20.16,25.03-40.32,50.05-60.48,75.08-20.35,25.27-34.44,45.6-42.26,61.01"/>
    <path class="cls-3" d="m1559.12,1208.72c-14.89-8.42-93.68-12.32-236.35-11.71-142.68,0-221.43,4.24-236.25,12.72.27,1.28.53,2.55.8,3.81"/>
    <path class="cls-3" d="m1203.02,1104.19c62.53,9.6,102.45,40.66,119.75,93.19"/>
    <path class="cls-3" d="m1442.52,1104.19c-62.53,9.6-102.45,40.66-119.75,93.19"/>
  </g>
  <g>
    <path class="cls-12" d="m247.36,371.21c0-3.77-1.46-7.04-4.37-9.82-2.91-2.77-7.01-4.16-12.3-4.16-4.48,0-8.02.92-10.62,2.75-2.6,1.83-3.9,4.32-3.9,7.45,0,1.61.31,3.08.94,4.37.63,1.3,1.73,2.47,3.29,3.49,1.57,1.03,3.63,1.96,6.18,2.76,2.55.81,5.8,1.57,9.74,2.28,9.86,1.79,17.38,4.79,22.58,9.01,5.2,4.21,7.8,10.43,7.8,18.68v1.61c0,4.4-.79,8.36-2.35,11.9-1.57,3.54-3.83,6.56-6.79,9.07-2.96,2.51-6.54,4.43-10.75,5.78-4.21,1.34-8.96,2.01-14.24,2.01-6.18,0-11.63-.87-16.33-2.62-4.7-1.75-8.62-4.17-11.76-7.25-3.14-3.1-5.51-6.72-7.12-10.89-1.61-4.17-2.42-8.71-2.42-13.63v-4.04h17.74v3.23c0,5.64,1.63,10.14,4.91,13.5,3.27,3.36,8.35,5.04,15.25,5.04,5.38,0,9.36-1.17,11.96-3.49,2.6-2.33,3.9-5.11,3.9-8.34,0-1.52-.27-2.97-.81-4.37-.54-1.39-1.48-2.64-2.82-3.76s-3.18-2.13-5.51-3.02c-2.33-.9-5.29-1.66-8.87-2.29-4.75-.81-9.1-1.86-13.04-3.16-3.94-1.29-7.37-3.02-10.28-5.17-2.91-2.15-5.17-4.83-6.79-8.06-1.61-3.23-2.42-7.17-2.42-11.83v-.81c0-3.85.78-7.41,2.35-10.68,1.57-3.27,3.76-6.11,6.58-8.54,2.82-2.41,6.23-4.3,10.21-5.64,3.99-1.35,8.45-2.02,13.37-2.02,5.55,0,10.48.79,14.78,2.35,4.3,1.57,7.91,3.69,10.82,6.39,2.91,2.69,5.11,5.77,6.58,9.27,1.48,3.49,2.22,7.17,2.22,11.02v4.83h-17.74v-3.22Z"/>
    <path class="cls-12" d="m280.96,369.86h19.76v-27.41h16.93v27.41h24.06v16.13h-24.06v30.37c0,2.69,1.21,4.03,3.63,4.03h18.01v16.13h-28.22c-3.05,0-5.53-.99-7.46-2.95-1.93-1.97-2.89-4.48-2.89-7.53v-40.05h-19.76v-16.13Z"/>
    <path class="cls-12" d="m410.25,369.86h16.93v66.66h-16.93v-9.68h-2.42c-2.96,7.71-9.32,11.56-19.08,11.56-3.32,0-6.41-.53-9.27-1.61-2.87-1.07-5.38-2.73-7.53-4.97-2.15-2.24-3.83-5.04-5.04-8.4-1.21-3.36-1.82-7.33-1.82-11.9v-41.66h16.93v38.17c0,4.75,1.12,8.45,3.36,11.09,2.24,2.64,5.6,3.97,10.08,3.97,5.11,0,8.85-1.64,11.22-4.91,2.37-3.27,3.56-7.73,3.56-13.38v-34.94Z"/>
    <path class="cls-12" d="m495.19,426.85h-2.42c-.72,1.52-1.59,2.98-2.62,4.37-1.03,1.39-2.38,2.62-4.03,3.69-1.66,1.07-3.63,1.93-5.91,2.55-2.29.63-5.04.94-8.27.94-4.12,0-7.95-.74-11.49-2.21-3.54-1.48-6.63-3.67-9.27-6.59-2.64-2.91-4.7-6.48-6.18-10.68-1.48-4.22-2.22-9.05-2.22-14.52v-2.42c0-5.37.78-10.17,2.35-14.38,1.57-4.22,3.72-7.78,6.45-10.69,2.73-2.91,5.91-5.13,9.54-6.65,3.63-1.53,7.46-2.29,11.49-2.29,5.37,0,9.63,1.01,12.77,3.03,3.13,2.01,5.6,4.86,7.39,8.53h2.42v-37.09h16.93v94.07h-16.93v-9.68Zm-17.74-4.57c5.29,0,9.56-1.68,12.83-5.04,3.27-3.36,4.91-7.78,4.91-13.24v-1.61c0-5.47-1.64-9.88-4.91-13.25-3.27-3.35-7.55-5.03-12.83-5.03s-9.57,1.63-12.83,4.9c-3.27,3.28-4.91,7.73-4.91,13.38v1.61c0,5.64,1.64,10.1,4.91,13.37,3.27,3.28,7.55,4.91,12.83,4.91Z"/>
    <path class="cls-12" d="m544.51,408.7c.09,1.97.56,3.79,1.41,5.44.85,1.66,2.02,3.1,3.49,4.3,1.48,1.22,3.18,2.16,5.11,2.82,1.93.67,3.96,1.02,6.11,1.02,4.21,0,7.44-.74,9.68-2.22,2.24-1.48,3.85-3.25,4.84-5.31l14.52,8.06c-.81,1.71-1.93,3.48-3.36,5.31-1.44,1.84-3.29,3.52-5.58,5.04-2.29,1.53-5.06,2.78-8.33,3.76-3.27.99-7.1,1.48-11.49,1.48-5.02,0-9.59-.81-13.71-2.42-4.12-1.6-7.68-3.94-10.68-6.99-3-3.04-5.33-6.76-6.99-11.16-1.66-4.39-2.49-9.35-2.49-14.92v-.81c0-5.11.87-9.76,2.62-13.98,1.75-4.21,4.14-7.8,7.19-10.75,3.05-2.96,6.61-5.26,10.68-6.92,4.08-1.66,8.44-2.49,13.1-2.49,5.73,0,10.66,1.01,14.78,3.03,4.12,2.01,7.53,4.57,10.22,7.65,2.69,3.1,4.66,6.5,5.91,10.22,1.25,3.72,1.88,7.33,1.88,10.82v9h-48.92Zm15.99-25.4c-4.3,0-7.8,1.09-10.48,3.29-2.69,2.2-4.43,4.73-5.24,7.6h31.45c-.54-3.13-2.22-5.73-5.04-7.8-2.82-2.06-6.38-3.09-10.68-3.09Z"/>
    <path class="cls-12" d="m628.78,436.52h-16.93v-66.66h16.93v9.95h2.42c1.52-3.77,3.99-6.67,7.39-8.74,3.4-2.06,7.39-3.1,11.96-3.1,3.22,0,6.25.51,9.07,1.55,2.82,1.03,5.31,2.62,7.46,4.77,2.15,2.16,3.83,4.89,5.04,8.2s1.81,7.25,1.81,11.82v42.2h-16.93v-37.9c0-4.75-1.14-8.49-3.43-11.22-2.29-2.73-5.58-4.09-9.88-4.09-5.02,0-8.76,1.68-11.22,5.04-2.46,3.35-3.7,7.86-3.7,13.5v34.68Z"/>
    <path class="cls-12" d="m692.22,369.86h19.76v-27.41h16.93v27.41h24.06v16.13h-24.06v30.37c0,2.69,1.21,4.03,3.63,4.03h18.01v16.13h-28.22c-3.05,0-5.53-.99-7.46-2.95-1.93-1.97-2.89-4.48-2.89-7.53v-40.05h-19.76v-16.13Z"/>
    <path class="cls-12" d="m320.74,503.73h67.74v16.93h-25v77.15h-17.74v-77.15h-25v-16.93Z"/>
    <path class="cls-12" d="m421.14,569.98c.09,1.97.56,3.79,1.41,5.44.85,1.66,2.02,3.1,3.49,4.3,1.48,1.22,3.18,2.16,5.11,2.82,1.93.67,3.96,1.02,6.11,1.02,4.21,0,7.44-.74,9.68-2.22,2.24-1.48,3.85-3.25,4.84-5.31l14.52,8.06c-.81,1.71-1.93,3.48-3.36,5.31-1.44,1.84-3.29,3.52-5.58,5.04-2.29,1.53-5.06,2.78-8.33,3.76-3.27.99-7.1,1.48-11.49,1.48-5.02,0-9.59-.81-13.71-2.42-4.12-1.6-7.68-3.94-10.68-6.99-3-3.04-5.33-6.76-6.99-11.16-1.66-4.39-2.49-9.35-2.49-14.92v-.81c0-5.11.87-9.76,2.62-13.98,1.75-4.21,4.14-7.8,7.19-10.75,3.05-2.96,6.61-5.26,10.68-6.92,4.08-1.66,8.44-2.49,13.1-2.49,5.73,0,10.66,1.01,14.78,3.03,4.12,2.01,7.53,4.57,10.22,7.65,2.69,3.1,4.66,6.5,5.91,10.22,1.25,3.72,1.88,7.33,1.88,10.82v9h-48.92Zm15.99-25.4c-4.3,0-7.8,1.09-10.48,3.29-2.69,2.2-4.43,4.73-5.24,7.6h31.45c-.54-3.13-2.22-5.73-5.04-7.8-2.82-2.06-6.38-3.09-10.68-3.09Z"/>
    <path class="cls-12" d="m531.61,588.13c-1.79,4.22-4.3,7.19-7.53,8.93-3.22,1.75-6.99,2.62-11.29,2.62-4.03,0-7.82-.76-11.36-2.28-3.54-1.53-6.65-3.77-9.34-6.72-2.69-2.96-4.82-6.54-6.38-10.76-1.57-4.21-2.35-9-2.35-14.38v-2.16c0-5.28.76-10.03,2.28-14.24,1.52-4.21,3.58-7.8,6.18-10.75,2.6-2.96,5.62-5.22,9.07-6.79,3.45-1.57,7.14-2.35,11.09-2.35,4.75,0,8.58.81,11.49,2.42,2.91,1.61,5.22,4.12,6.92,7.53h2.42v-8.07h16.93v46.51c0,2.69,1.21,4.03,3.63,4.03h2.55v16.13h-11.56c-3.05,0-5.53-.89-7.46-2.69-1.93-1.79-2.89-4.12-2.89-6.99h-2.42Zm-15.05-4.57c4.93,0,8.87-1.63,11.83-4.91,2.96-3.27,4.44-7.73,4.44-13.37v-1.61c0-5.65-1.48-10.1-4.44-13.38-2.96-3.27-6.9-4.9-11.83-4.9s-8.87,1.63-11.83,4.9c-2.96,3.28-4.43,7.73-4.43,13.38v1.61c0,5.64,1.48,10.1,4.43,13.37,2.96,3.28,6.9,4.91,11.83,4.91Z"/>
    <path class="cls-12" d="m637.65,597.8h-16.93v-46.77c0-1.88-.47-3.29-1.41-4.23-.94-.94-2.17-1.41-3.7-1.41-1.79,0-3.2.53-4.23,1.6-1.03,1.08-1.55,2.7-1.55,4.84v45.96h-16.93v-46.77c0-1.88-.52-3.29-1.55-4.23s-2.26-1.41-3.7-1.41c-1.61,0-2.96.53-4.03,1.6-1.08,1.08-1.61,2.7-1.61,4.84v45.96h-16.93v-66.66h16.93v6.46h2.42c.54-2.42,1.77-4.42,3.7-5.98,1.93-1.57,4.46-2.35,7.59-2.35,2.96,0,5.46.79,7.53,2.35,2.06,1.57,3.45,3.56,4.17,5.98h2.42c.72-2.42,2.22-4.42,4.5-5.98,2.29-1.57,5.13-2.35,8.54-2.35,4.48,0,8.06,1.5,10.75,4.5,2.69,3.01,4.03,7.15,4.03,12.44v51.6Z"/>
  </g>
  <g>
    <path class="cls-12" d="m191.12,2075.5c3.4,0,6.2-.52,8.4-1.55,2.2-1.03,3.9-2.42,5.11-4.17,1.21-1.75,2.04-3.76,2.49-6.05.45-2.29.67-4.63.67-7.05v-2.42h17.74v2.42c0,11.2-2.94,19.83-8.8,25.87-5.87,6.05-14.4,9.07-25.6,9.07s-19.26-3.27-25.54-9.81c-6.27-6.54-9.41-16.08-9.41-28.63v-20.96c0-6,.8-11.4,2.42-16.2,1.61-4.79,3.94-8.82,6.99-12.1,3.05-3.27,6.72-5.77,11.02-7.53,4.3-1.75,9.14-2.62,14.52-2.62s10.48.81,14.78,2.42c4.3,1.61,7.91,3.95,10.82,6.99,2.91,3.05,5.11,6.72,6.58,11.02,1.48,4.3,2.22,9.14,2.22,14.52v2.42h-17.74v-2.42c0-2.24-.27-4.48-.8-6.72-.54-2.24-1.43-4.25-2.69-6.05-1.26-1.79-2.96-3.25-5.11-4.37s-4.84-1.68-8.06-1.68c-2.96,0-5.51.56-7.66,1.68-2.15,1.12-3.94,2.64-5.37,4.57-1.44,1.93-2.49,4.17-3.16,6.72-.67,2.55-1.01,5.22-1.01,7.99v23.65c0,3.05.31,5.85.94,8.4.62,2.55,1.61,4.78,2.96,6.66,1.35,1.88,3.11,3.33,5.31,4.37,2.19,1.03,4.86,1.55,8,1.55Z"/>
    <path class="cls-12" d="m307.77,2057.22c0,5.55-.94,10.45-2.82,14.71-1.88,4.26-4.43,7.84-7.66,10.76-3.23,2.91-6.92,5.13-11.09,6.66-4.17,1.52-8.53,2.28-13.11,2.28s-8.94-.76-13.1-2.28c-4.17-1.53-7.86-3.74-11.09-6.66-3.23-2.91-5.78-6.49-7.66-10.76-1.88-4.25-2.82-9.15-2.82-14.71v-1.61c0-5.47.94-10.33,2.82-14.58,1.88-4.25,4.43-7.86,7.66-10.82,3.23-2.95,6.92-5.19,11.09-6.71,4.17-1.53,8.53-2.29,13.1-2.29s8.94.76,13.11,2.29c4.17,1.52,7.86,3.76,11.09,6.71,3.23,2.96,5.78,6.57,7.66,10.82,1.88,4.25,2.82,9.12,2.82,14.58v1.61Zm-34.68,18.28c2.42,0,4.7-.41,6.86-1.22s4.03-1.97,5.64-3.49c1.61-1.52,2.89-3.38,3.83-5.57.94-2.19,1.41-4.68,1.41-7.46v-2.69c0-2.77-.47-5.26-1.41-7.46-.94-2.19-2.22-4.04-3.83-5.57-1.61-1.52-3.49-2.69-5.64-3.49-2.15-.81-4.43-1.21-6.86-1.21s-4.7.4-6.85,1.21c-2.15.81-4.03,1.97-5.64,3.49-1.61,1.53-2.89,3.38-3.83,5.57-.94,2.2-1.41,4.69-1.41,7.46v2.69c0,2.78.47,5.27,1.41,7.46.94,2.19,2.22,4.05,3.83,5.57,1.61,1.53,3.49,2.69,5.64,3.49s4.43,1.22,6.85,1.22Z"/>
    <path class="cls-12" d="m391.64,2089.74h-16.93v-46.77c0-1.88-.47-3.29-1.41-4.23s-2.17-1.41-3.7-1.41c-1.79,0-3.2.53-4.23,1.6-1.03,1.08-1.55,2.7-1.55,4.84v45.96h-16.93v-46.77c0-1.88-.52-3.29-1.55-4.23s-2.26-1.41-3.7-1.41c-1.61,0-2.96.53-4.03,1.6-1.08,1.08-1.61,2.7-1.61,4.84v45.96h-16.93v-66.66h16.93v6.46h2.42c.54-2.42,1.77-4.42,3.7-5.98s4.46-2.35,7.59-2.35c2.96,0,5.46.79,7.53,2.35,2.06,1.57,3.45,3.56,4.17,5.98h2.42c.72-2.42,2.22-4.42,4.5-5.98,2.29-1.57,5.13-2.35,8.54-2.35,4.48,0,8.06,1.5,10.75,4.5,2.69,3.01,4.03,7.15,4.03,12.44v51.6Z"/>
    <path class="cls-12" d="m420.4,2116.62h-16.93v-93.54h16.93v9.68h2.42c1.79-3.66,4.39-6.51,7.8-8.53,3.4-2.02,7.75-3.03,13.04-3.03,3.94,0,7.68.76,11.22,2.29,3.54,1.52,6.63,3.74,9.27,6.65,2.64,2.91,4.75,6.48,6.32,10.69,1.57,4.21,2.35,9,2.35,14.38v2.42c0,5.47-.76,10.3-2.29,14.52-1.52,4.21-3.58,7.77-6.18,10.68-2.6,2.91-5.67,5.11-9.21,6.59-3.54,1.47-7.37,2.21-11.49,2.21-3.05,0-5.69-.31-7.93-.94-2.24-.63-4.19-1.48-5.85-2.55-1.66-1.07-3.05-2.31-4.17-3.69-1.12-1.39-2.08-2.85-2.89-4.37h-2.42v36.55Zm17.74-41.12c5.29,0,9.56-1.63,12.83-4.91,3.27-3.27,4.91-7.73,4.91-13.37v-1.61c0-5.65-1.64-10.1-4.91-13.38-3.27-3.27-7.55-4.9-12.83-4.9s-9.57,1.68-12.83,5.03c-3.27,3.36-4.91,7.78-4.91,13.25v1.61c0,5.46,1.63,9.87,4.91,13.24,3.27,3.36,7.55,5.04,12.83,5.04Z"/>
    <path class="cls-12" d="m532.35,2080.07c-1.79,4.22-4.3,7.19-7.53,8.93-3.22,1.75-6.99,2.62-11.29,2.62-4.03,0-7.82-.76-11.36-2.28-3.54-1.53-6.65-3.77-9.34-6.72-2.69-2.96-4.82-6.54-6.38-10.76-1.57-4.21-2.35-9-2.35-14.38v-2.16c0-5.28.76-10.03,2.28-14.24,1.52-4.21,3.58-7.8,6.18-10.75,2.6-2.96,5.62-5.22,9.07-6.79,3.45-1.57,7.14-2.35,11.09-2.35,4.75,0,8.58.81,11.49,2.42,2.91,1.61,5.22,4.12,6.92,7.53h2.42v-8.07h16.93v46.51c0,2.69,1.21,4.03,3.63,4.03h2.55v16.13h-11.56c-3.05,0-5.53-.89-7.46-2.69-1.93-1.79-2.89-4.12-2.89-6.99h-2.42Zm-15.05-4.57c4.93,0,8.87-1.63,11.83-4.91,2.96-3.27,4.44-7.73,4.44-13.37v-1.61c0-5.65-1.48-10.1-4.44-13.38-2.96-3.27-6.9-4.9-11.83-4.9s-8.87,1.63-11.83,4.9c-2.96,3.28-4.43,7.73-4.43,13.38v1.61c0,5.64,1.48,10.1,4.43,13.37,2.96,3.28,6.9,4.91,11.83,4.91Z"/>
    <path class="cls-12" d="m588.39,2089.74h-16.93v-66.66h16.93v9.95h2.42c1.52-3.77,3.99-6.67,7.39-8.74,3.4-2.06,7.39-3.1,11.96-3.1,3.22,0,6.25.51,9.07,1.55,2.82,1.03,5.31,2.62,7.46,4.77,2.15,2.16,3.83,4.89,5.04,8.2s1.81,7.25,1.81,11.82v42.2h-16.93v-37.9c0-4.75-1.14-8.49-3.43-11.22-2.29-2.73-5.58-4.09-9.88-4.09-5.02,0-8.76,1.68-11.22,5.04-2.46,3.35-3.7,7.86-3.7,13.5v34.68Z"/>
    <path class="cls-12" d="m654.92,2073.61h22.58v-34.4h-20.97v-16.13h37.9v50.53h19.35v16.13h-58.87v-16.13Zm43.68-70.29c0,1.79-.33,3.48-1.01,5.04-.67,1.57-1.59,2.91-2.75,4.04-1.17,1.12-2.53,2.01-4.1,2.69-1.57.67-3.2,1.01-4.91,1.01-1.79,0-3.45-.33-4.97-1.01s-2.87-1.57-4.03-2.69c-1.17-1.12-2.08-2.47-2.76-4.04-.67-1.57-1.01-3.25-1.01-5.04s.34-3.47,1.01-5.03c.67-1.57,1.59-2.91,2.76-4.04,1.16-1.12,2.51-2.01,4.03-2.69s3.18-1.01,4.97-1.01,3.34.33,4.91,1.01c1.57.67,2.93,1.57,4.1,2.69,1.16,1.12,2.08,2.47,2.75,4.04.67,1.57,1.01,3.25,1.01,5.03Z"/>
    <path class="cls-12" d="m750.88,2061.92c.09,1.97.56,3.79,1.41,5.44.85,1.66,2.02,3.1,3.49,4.3,1.48,1.22,3.18,2.16,5.11,2.82,1.93.67,3.96,1.02,6.11,1.02,4.21,0,7.44-.74,9.68-2.22,2.24-1.48,3.85-3.25,4.84-5.31l14.52,8.06c-.81,1.71-1.93,3.48-3.36,5.31-1.44,1.84-3.29,3.52-5.58,5.04-2.29,1.53-5.06,2.78-8.33,3.76-3.27.99-7.1,1.48-11.49,1.48-5.02,0-9.59-.81-13.71-2.42-4.12-1.6-7.68-3.94-10.68-6.99-3-3.04-5.33-6.76-6.99-11.16-1.66-4.39-2.49-9.35-2.49-14.92v-.81c0-5.11.87-9.76,2.62-13.98,1.75-4.21,4.14-7.8,7.19-10.75,3.05-2.96,6.61-5.26,10.68-6.92,4.08-1.66,8.44-2.49,13.1-2.49,5.73,0,10.66,1.01,14.78,3.03,4.12,2.01,7.53,4.57,10.22,7.65,2.69,3.1,4.66,6.5,5.91,10.22,1.25,3.72,1.88,7.33,1.88,10.82v9h-48.92Zm15.99-25.4c-4.3,0-7.8,1.09-10.48,3.29-2.69,2.2-4.43,4.73-5.24,7.6h31.45c-.54-3.13-2.22-5.73-5.04-7.8-2.82-2.06-6.38-3.09-10.68-3.09Z"/>
    <path class="cls-12" d="m839.45,2041.9c0,2.15,1.12,3.69,3.36,4.63,2.24.94,6.32,1.73,12.23,2.35,6.81.72,12.36,2.75,16.67,6.11,4.3,3.36,6.45,8.04,6.45,14.04v.81c0,6.64-2.42,11.92-7.26,15.86-4.84,3.95-11.65,5.92-20.43,5.92-5.2,0-9.63-.67-13.3-2.01-3.68-1.35-6.72-3.03-9.14-5.04-2.42-2.01-4.28-4.25-5.58-6.72-1.3-2.46-2.17-4.85-2.62-7.19l15.59-5.11c.71,2.87,2.22,5.37,4.5,7.53,2.29,2.15,5.8,3.23,10.55,3.23,4.21,0,7.1-.66,8.67-1.96,1.57-1.29,2.35-2.71,2.35-4.23,0-.89-.2-1.72-.61-2.48-.4-.77-1.14-1.48-2.22-2.16-1.08-.67-2.53-1.23-4.37-1.68-1.84-.45-4.15-.81-6.92-1.07-7.53-.63-13.51-2.57-17.94-5.85-4.43-3.27-6.65-8.08-6.65-14.44v-.81c0-3.31.72-6.23,2.15-8.74,1.43-2.52,3.31-4.64,5.64-6.39,2.33-1.75,5.02-3.07,8.06-3.96,3.05-.9,6.18-1.35,9.41-1.35,4.21,0,7.86.51,10.95,1.55,3.09,1.03,5.71,2.37,7.86,4.03,2.15,1.66,3.9,3.49,5.24,5.52,1.34,2.01,2.37,3.96,3.09,5.85l-15.32,6.18c-.8-2.42-2.2-4.32-4.17-5.72-1.97-1.39-4.52-2.08-7.66-2.08-2.87,0-5.02.51-6.45,1.54-1.43,1.03-2.15,2.32-2.15,3.84Z"/>
    <path class="cls-12" d="m340.16,2184.36v11.02h12.36v16.93h-12.36v38.71h-33.6c-4.48,0-8.47-.63-11.96-1.88s-6.41-2.98-8.74-5.17c-2.33-2.19-4.1-4.79-5.31-7.8-1.21-3-1.81-6.25-1.81-9.74v-1.61c0-5.37,1.5-9.7,4.5-12.97,3-3.27,6.79-5.54,11.36-6.79v-2.42c-4.57-1.25-8.36-3.49-11.36-6.71-3-3.23-4.5-7.53-4.5-12.9v-1.61c0-3.49.61-6.74,1.81-9.74,1.21-3,2.98-5.58,5.31-7.73,2.33-2.16,5.24-3.85,8.74-5.11,3.49-1.25,7.48-1.88,11.96-1.88h14.65v16.12h-12.9c-3.76,0-6.81.87-9.14,2.62-2.33,1.75-3.49,4.46-3.49,8.14v.81c0,3.76,1.16,6.49,3.49,8.19,2.33,1.7,5.38,2.55,9.14,2.55h14.92v-11.02h16.93Zm-16.93,27.15h-14.92c-3.76,0-6.81.95-9.14,2.83-2.33,1.88-3.49,4.7-3.49,8.46v.81c0,3.77,1.16,6.59,3.49,8.47,2.33,1.88,5.38,2.82,9.14,2.82h14.92v-23.39Z"/>
    <path class="cls-12" d="m491.49,2242.15h2.42v-85.21h17.74v94.07h-34.68l-11.02-85.21h-2.42v85.21h-17.74v-94.07h34.68l11.02,85.21Z"/>
    <path class="cls-12" d="m554.79,2203.44h40.32v47.58h-16.13v-10.48h-2.42c-1.08,3.49-3.14,6.43-6.18,8.8-3.05,2.37-7.62,3.56-13.71,3.56-4.3,0-8.33-.81-12.1-2.42-3.76-1.6-7.04-4.01-9.81-7.19-2.78-3.18-4.97-7.12-6.59-11.83-1.61-4.7-2.42-10.19-2.42-16.45v-22.05c0-6.09.87-11.49,2.62-16.2,1.75-4.7,4.17-8.67,7.26-11.89,3.09-3.23,6.79-5.67,11.09-7.33,4.3-1.65,9.05-2.49,14.24-2.49s10.17.87,14.38,2.62c4.21,1.76,7.8,4.17,10.75,7.26,2.96,3.09,5.2,6.72,6.72,10.88,1.52,4.17,2.29,8.63,2.29,13.38v1.61h-17.74v-1.61c0-5.65-1.46-9.92-4.37-12.84-2.91-2.91-7.01-4.37-12.3-4.37s-9.14,1.68-12.36,5.04c-3.23,3.36-4.84,9.12-4.84,17.27v19.89c0,14.51,5.91,21.77,17.74,21.77,5.28,0,9.29-1.41,12.03-4.23,2.73-2.82,4.1-6.61,4.1-11.36h-22.58v-16.94Z"/>
    <path class="cls-12" d="m608.55,2193.5c0-12.18,3.07-21.64,9.21-28.36,6.14-6.72,14.63-10.08,25.47-10.08s19.33,3.36,25.47,10.08c6.14,6.72,9.21,16.18,9.21,28.36v20.96c0,12.54-3.07,22.08-9.21,28.63-6.14,6.54-14.63,9.81-25.47,9.81s-19.33-3.27-25.47-9.81c-6.14-6.54-9.21-16.08-9.21-28.63v-20.96Zm34.67,43.28c3.23,0,5.92-.52,8.07-1.55,2.15-1.03,3.9-2.49,5.24-4.37,1.34-1.88,2.28-4.12,2.82-6.72.54-2.6.8-5.46.8-8.6v-23.11c0-2.96-.31-5.73-.94-8.34s-1.61-4.84-2.96-6.72c-1.35-1.88-3.09-3.38-5.24-4.5-2.15-1.12-4.75-1.68-7.8-1.68s-5.64.56-7.79,1.68c-2.15,1.12-3.9,2.62-5.24,4.5-1.34,1.88-2.33,4.12-2.96,6.72-.63,2.6-.94,5.37-.94,8.34v23.11c0,3.14.27,6,.81,8.6.54,2.6,1.48,4.84,2.82,6.72,1.34,1.88,3.09,3.33,5.24,4.37,2.15,1.03,4.84,1.55,8.06,1.55Z"/>
    <path class="cls-12" d="m716.07,2203.18c0,2.15,1.12,3.69,3.36,4.63,2.24.94,6.32,1.73,12.23,2.35,6.81.72,12.36,2.75,16.67,6.11s6.45,8.04,6.45,14.04v.81c0,6.64-2.42,11.92-7.26,15.86-4.84,3.95-11.65,5.92-20.43,5.92-5.2,0-9.63-.67-13.3-2.01-3.68-1.35-6.72-3.03-9.14-5.04-2.42-2.01-4.28-4.25-5.58-6.72-1.3-2.46-2.17-4.85-2.62-7.19l15.59-5.11c.71,2.87,2.22,5.37,4.5,7.53,2.29,2.15,5.8,3.23,10.55,3.23,4.21,0,7.1-.66,8.67-1.96,1.57-1.29,2.35-2.71,2.35-4.23,0-.89-.2-1.72-.61-2.48-.4-.77-1.14-1.48-2.22-2.16-1.08-.67-2.53-1.23-4.37-1.68-1.84-.45-4.15-.81-6.92-1.07-7.53-.63-13.51-2.57-17.94-5.85-4.43-3.27-6.65-8.08-6.65-14.44v-.81c0-3.31.72-6.23,2.15-8.74,1.43-2.52,3.31-4.64,5.64-6.39,2.33-1.75,5.02-3.07,8.06-3.96,3.05-.9,6.18-1.35,9.41-1.35,4.21,0,7.86.51,10.95,1.55,3.09,1.03,5.71,2.37,7.86,4.03,2.15,1.66,3.9,3.49,5.24,5.52,1.34,2.01,2.37,3.96,3.09,5.85l-15.32,6.18c-.8-2.42-2.2-4.32-4.17-5.72-1.97-1.39-4.52-2.08-7.66-2.08-2.87,0-5.02.51-6.45,1.54-1.43,1.03-2.15,2.32-2.15,3.84Z"/>
  </g>
  <g>
    <path class="cls-12" d="m2080.13,413.53h17.74v77.14h42.74v16.94h-60.48v-94.07Z"/>
    <path class="cls-12" d="m2204.98,497.93c-1.79,4.22-4.3,7.19-7.52,8.93-3.22,1.75-6.99,2.62-11.29,2.62-4.03,0-7.82-.76-11.36-2.28-3.54-1.53-6.66-3.77-9.34-6.72-2.69-2.96-4.81-6.54-6.38-10.76-1.57-4.21-2.35-9-2.35-14.38v-2.16c0-5.28.76-10.03,2.28-14.24,1.52-4.21,3.58-7.8,6.19-10.75,2.6-2.96,5.62-5.22,9.07-6.79,3.45-1.57,7.14-2.35,11.09-2.35,4.75,0,8.58.81,11.49,2.42,2.91,1.61,5.22,4.12,6.92,7.53h2.42v-8.07h16.93v46.51c0,2.69,1.21,4.03,3.63,4.03h2.55v16.13h-11.56c-3.05,0-5.54-.89-7.46-2.69-1.93-1.79-2.89-4.12-2.89-6.99h-2.42Zm-15.05-4.57c4.92,0,8.87-1.63,11.83-4.91,2.96-3.27,4.43-7.73,4.43-13.37v-1.61c0-5.65-1.48-10.1-4.43-13.38-2.96-3.27-6.9-4.9-11.83-4.9s-8.87,1.63-11.83,4.9c-2.95,3.28-4.43,7.73-4.43,13.38v1.61c0,5.64,1.48,10.1,4.43,13.37,2.96,3.28,6.9,4.91,11.83,4.91Z"/>
    <path class="cls-12" d="m2258.21,507.61h-16.93v-94.07h16.93v37.09h2.42c1.79-3.66,4.39-6.51,7.8-8.53,3.4-2.02,7.75-3.03,13.04-3.03,3.95,0,7.69.76,11.22,2.29,3.54,1.52,6.63,3.74,9.28,6.65,2.64,2.91,4.75,6.48,6.31,10.69,1.57,4.21,2.35,9,2.35,14.38v2.42c0,5.47-.76,10.3-2.29,14.52-1.52,4.21-3.58,7.77-6.18,10.68-2.6,2.91-5.67,5.11-9.21,6.59-3.54,1.47-7.37,2.21-11.49,2.21-3.04,0-5.69-.31-7.93-.94s-4.19-1.48-5.84-2.55c-1.66-1.07-3.05-2.31-4.17-3.69-1.12-1.39-2.08-2.85-2.89-4.37h-2.42v9.68Zm17.74-14.24c5.28,0,9.56-1.63,12.83-4.91,3.27-3.27,4.91-7.73,4.91-13.37v-1.61c0-5.65-1.64-10.1-4.91-13.38-3.27-3.27-7.55-4.9-12.83-4.9s-9.57,1.68-12.84,5.03c-3.27,3.36-4.9,7.78-4.9,13.25v1.61c0,5.46,1.63,9.87,4.9,13.24,3.27,3.36,7.55,5.04,12.84,5.04Z"/>
  </g>
  <g>
    <path class="cls-12" d="m1964.08,2133.29v35.48h-17.74v-94.07h36.83c4.84,0,9.05.78,12.63,2.35,3.58,1.58,6.56,3.64,8.94,6.18,2.37,2.55,4.16,5.47,5.37,8.74,1.21,3.27,1.81,6.61,1.81,10.01v3.23c0,3.49-.6,6.92-1.81,10.28-1.21,3.35-3.01,6.36-5.37,9-2.38,2.64-5.36,4.77-8.94,6.38-3.58,1.61-7.8,2.42-12.63,2.42h-19.08Zm0-16.93h17.34c3.94,0,7.05-1.08,9.34-3.23,2.29-2.16,3.43-4.93,3.43-8.34v-1.61c0-3.4-1.14-6.18-3.43-8.33-2.28-2.16-5.4-3.23-9.34-3.23h-17.34v24.73Z"/>
    <path class="cls-12" d="m2074.55,2102.1h16.93v66.66h-16.93v-9.68h-2.42c-2.96,7.71-9.32,11.56-19.08,11.56-3.32,0-6.41-.53-9.27-1.61-2.87-1.07-5.38-2.73-7.53-4.97-2.15-2.24-3.83-5.04-5.04-8.4-1.21-3.36-1.82-7.33-1.82-11.9v-41.66h16.93v38.17c0,4.75,1.12,8.45,3.36,11.09,2.24,2.64,5.6,3.97,10.08,3.97,5.11,0,8.85-1.64,11.22-4.91,2.37-3.27,3.56-7.73,3.56-13.38v-34.94Z"/>
    <path class="cls-12" d="m2125.76,2168.77h-16.93v-94.07h16.93v37.09h2.42c1.79-3.66,4.39-6.51,7.8-8.53,3.4-2.02,7.75-3.03,13.04-3.03,3.94,0,7.68.76,11.22,2.29,3.54,1.52,6.63,3.74,9.27,6.65,2.64,2.91,4.75,6.48,6.32,10.69,1.57,4.21,2.35,9,2.35,14.38v2.42c0,5.47-.76,10.3-2.28,14.52-1.52,4.21-3.58,7.77-6.18,10.68-2.6,2.91-5.67,5.11-9.21,6.59-3.54,1.47-7.37,2.21-11.49,2.21-3.05,0-5.69-.31-7.93-.94-2.24-.63-4.19-1.48-5.85-2.55-1.66-1.07-3.05-2.31-4.16-3.69-1.13-1.39-2.08-2.85-2.89-4.37h-2.42v9.68Zm17.74-14.24c5.29,0,9.57-1.63,12.84-4.91,3.27-3.27,4.9-7.73,4.9-13.37v-1.61c0-5.65-1.63-10.1-4.9-13.38-3.27-3.27-7.55-4.9-12.84-4.9s-9.57,1.68-12.83,5.03c-3.27,3.36-4.91,7.78-4.91,13.25v1.61c0,5.46,1.64,9.87,4.91,13.24,3.27,3.36,7.54,5.04,12.83,5.04Z"/>
    <path class="cls-12" d="m2193.5,2152.64h23.39v-61.82h-22.58v-16.12h39.51v77.94h21.78v16.13h-62.1v-16.13Z"/>
    <path class="cls-12" d="m2277.36,2152.64h22.58v-34.4h-20.97v-16.13h37.9v50.53h19.35v16.13h-58.86v-16.13Zm43.68-70.29c0,1.79-.33,3.48-1.01,5.04s-1.59,2.91-2.75,4.04c-1.17,1.12-2.54,2.01-4.1,2.69s-3.2,1.01-4.9,1.01c-1.79,0-3.45-.33-4.98-1.01-1.52-.67-2.87-1.57-4.03-2.69-1.16-1.12-2.08-2.47-2.75-4.04-.67-1.57-1.01-3.25-1.01-5.04s.34-3.47,1.01-5.03c.67-1.57,1.59-2.91,2.75-4.04,1.16-1.12,2.51-2.01,4.03-2.69s3.18-1.01,4.98-1.01c1.7,0,3.34.33,4.9,1.01,1.57.67,2.93,1.57,4.1,2.69,1.16,1.12,2.08,2.47,2.75,4.04.67,1.57,1.01,3.25,1.01,5.03Z"/>
    <path class="cls-12" d="m2423.45,2144.31c-1.52,7.88-5.13,14.24-10.82,19.08-5.69,4.83-13.28,7.25-22.78,7.25-4.93,0-9.52-.76-13.78-2.28-4.26-1.53-7.95-3.72-11.09-6.59-3.14-2.87-5.6-6.41-7.39-10.62-1.79-4.22-2.69-9.01-2.69-14.38v-1.61c0-5.37.9-10.21,2.69-14.51,1.79-4.3,4.28-7.98,7.46-11.02,3.18-3.05,6.9-5.37,11.15-6.99,4.26-1.61,8.81-2.42,13.64-2.42,9.31,0,16.87,2.42,22.65,7.25,5.78,4.84,9.43,11.2,10.95,19.08l-16.66,4.3c-.54-3.94-2.24-7.34-5.11-10.21s-6.9-4.3-12.1-4.3c-2.42,0-4.7.45-6.86,1.34-2.15.9-4.03,2.17-5.64,3.84-1.61,1.65-2.89,3.67-3.83,6.05-.94,2.37-1.41,5.03-1.41,7.99v.81c0,2.95.47,5.57,1.41,7.86.94,2.28,2.22,4.19,3.83,5.71,1.61,1.53,3.49,2.67,5.64,3.43,2.15.77,4.44,1.15,6.86,1.15,5.2,0,9.16-1.3,11.9-3.9,2.73-2.59,4.5-6.1,5.31-10.48l16.66,4.17Z"/>
  </g>
  <g>
    <path class="cls-11" d="m1231.44,61.52c4.83,12.97,16.66,19.64,32.67,37.77,27.62,31.19,62.33,46.11,95.24,59.44,47.2,19.07,139.28,51.8,228.81,41.32,7.59-16.04,15.19-32.07,22.78-48.11,10.04,19.36,20.07,38.72,30.11,58.09,22.01.96,44.02,1.93,66.03,2.89.37-10.64-.06-25.7-4.05-43.45C1686.88,79.13,1536.07-5.62,1388.29.29c-25.86,1.06-112.79,18.58-156.86,61.23Z"/>
    <path class="cls-5" d="m1410.42,78.36c-157.06-34.42-320.91-19.53-469.19,42.65"/>
  </g>
  <g>
    <path class="cls-10" d="m69.31,1458.64c12.75-5.39,18.9-17.5,36.3-34.29,29.95-28.96,43.34-64.28,55.23-97.75,16.99-47.99,45.67-141.41,31.29-230.4-16.35-6.89-32.7-13.77-49.06-20.66,18.91-10.87,37.81-21.74,56.72-32.61,0-22.03,0-44.06,0-66.09-10.65.1-25.67,1.18-43.23,5.95C67.02,1002.86-11.07,1157.23,1.29,1304.61c2.18,25.79,23.49,111.87,68.02,154.03Z"/>
    <path class="cls-6" d="m78.32,1279.09c-27.53,158.41-5.5,321.46,63.09,466.88"/>
  </g>
  <g>
    <path class="cls-12" d="m1417.19,2570.58c-4.92-12.94-16.8-19.52-32.95-37.53-27.85-30.99-62.67-45.65-95.67-58.75-47.34-18.73-139.65-50.78-229.11-39.65-7.48,16.09-14.95,32.18-22.43,48.27-10.18-19.29-20.35-38.58-30.53-57.86-22.02-.8-44.03-1.6-66.05-2.41-.29,10.65.25,25.7,4.37,43.42,16.8,90.22,168.23,173.87,315.96,166.87,25.86-1.25,112.65-19.4,156.41-62.37Z"/>
    <path class="cls-5" d="m1238.09,2555.06c157.31,33.27,321.05,17.18,468.87-46.08"/>
  </g>
  <g>
    <path class="cls-10" d="m2586.62,1222.7c-13.01,4.73-19.77,16.5-38.02,32.37-31.41,27.38-46.6,61.97-60.19,94.77-19.44,47.05-52.89,138.87-43.12,228.48,15.98,7.72,31.95,15.44,47.93,23.16-19.44,9.88-38.88,19.77-58.32,29.65-1.14,22-2.27,44-3.41,66,10.64.45,25.7.14,43.48-3.71,90.46-15.43,176.4-165.57,171.65-313.39-.85-25.87-17.69-112.93-59.99-157.33Z"/>
    <path class="cls-4" d="m2568.38,1401.54c35.65-156.78,22.05-320.75-38.96-469.51"/>
  </g>
</svg>