<?xml version="1.0" standalone="no"?>
<!DOCTYPE svg PUBLIC "-//W3C//DTD SVG 20010904//EN"
 "http://www.w3.org/TR/2001/REC-SVG-20010904/DTD/svg10.dtd">
<svg version="1.0" xmlns="http://www.w3.org/2000/svg"
 width="500.000000pt" height="500.000000pt" viewBox="0 0 500.000000 500.000000"
 preserveAspectRatio="xMidYMid meet">
<metadata>
Created by potrace 1.14, written by Peter Selinger 2001-2017
</metadata>
<g transform="translate(0.000000,500.000000) scale(0.100000,-0.100000)"
fill="#000000" stroke="none">
<path d="M2309 4996 c-2 -2 -38 -7 -79 -11 -41 -4 -109 -13 -150 -21 -41 -8
-89 -17 -106 -20 -18 -3 -72 -16 -120 -30 -49 -13 -97 -26 -106 -28 -86 -22
-317 -120 -443 -190 -81 -44 -282 -171 -295 -185 -3 -3 -39 -33 -80 -65 -139
-109 -442 -430 -468 -496 -3 -8 -12 -21 -19 -28 -13 -13 -123 -189 -123 -196
0 -3 -13 -27 -28 -53 -33 -57 -129 -269 -134 -298 -1 -11 -6 -22 -9 -25 -5 -4
-56 -161 -64 -200 -58 -252 -58 -255 -73 -395 -9 -87 -8 -428 1 -514 8 -73 16
-125 32 -206 3 -14 7 -35 9 -47 42 -226 180 -580 300 -768 111 -174 196 -289
275 -374 52 -55 193 -197 227 -226 252 -221 596 -412 909 -504 50 -14 104 -30
120 -36 17 -5 48 -12 70 -16 50 -10 54 -11 58 -14 1 -1 13 -3 27 -4 14 -2 45
-6 70 -10 164 -28 429 -37 600 -21 41 4 91 8 110 10 111 11 299 55 449 105
166 57 159 54 186 65 29 11 256 123 280 138 91 56 243 156 255 168 8 8 42 34
75 59 56 42 273 253 341 330 133 153 292 408 381 615 53 121 126 338 139 411
3 16 10 49 15 74 6 25 12 58 14 74 3 15 7 35 9 45 3 9 8 45 11 81 3 36 9 79
11 95 7 35 6 380 0 442 -2 23 -7 59 -10 80 -3 21 -8 58 -11 83 -29 219 -123
510 -242 745 -53 104 -204 344 -237 378 -9 9 -16 18 -16 22 0 4 -6 12 -12 19
-7 8 -33 37 -58 66 -95 113 -272 281 -383 365 -61 46 -205 145 -211 145 -3 0
-21 11 -41 25 -33 22 -260 136 -310 155 -11 4 -33 13 -50 20 -67 28 -270 91
-335 104 -14 3 -36 7 -50 10 -14 3 -41 9 -60 12 -19 4 -44 8 -55 11 -11 2 -40
6 -65 9 -25 3 -61 8 -80 10 -44 7 -446 15 -451 10z m92 -247 c30 -15 14 -28
-30 -22 -29 4 -39 1 -44 -11 -5 -12 1 -20 21 -27 63 -25 77 -35 80 -61 2 -14
-4 -33 -13 -42 -20 -19 -84 -21 -109 -3 -16 12 -16 15 -3 26 10 8 17 9 22 1 8
-13 62 -13 70 0 10 16 -14 40 -39 40 -32 0 -66 28 -66 55 0 44 64 69 111 44z
m197 -46 c-7 -74 6 -103 44 -103 34 0 47 26 49 100 2 39 6 50 19 50 33 0 13
-148 -24 -172 -21 -14 -74 -8 -97 11 -19 16 -23 28 -22 72 1 95 2 99 19 99 14
0 16 -9 12 -57z m393 -2 c29 -24 18 -38 -16 -23 -35 16 -52 15 -59 -3 -3 -10
8 -22 34 -37 59 -35 65 -87 11 -106 -31 -11 -89 10 -98 35 -9 23 1 24 42 3 30
-15 41 -17 53 -8 12 10 10 15 -11 33 -13 11 -32 25 -41 30 -23 14 -28 66 -7
82 24 18 66 16 92 -6z m-1064 -35 c-3 -8 -19 -17 -35 -21 -21 -4 -29 -12 -28
-23 2 -13 12 -16 43 -14 43 4 61 -10 68 -50 7 -41 -40 -80 -83 -69 -29 8 -25
26 6 25 31 -2 63 43 41 57 -19 12 -59 11 -59 -1 0 -23 -21 -7 -35 26 -22 54
-19 62 33 77 52 15 57 14 49 -7z m1311 -33 c48 -18 60 -47 14 -34 -28 8 -29 7
-56 -65 -15 -41 -31 -74 -36 -74 -18 0 -19 19 -1 66 34 89 34 90 6 102 -14 6
-25 17 -25 23 0 13 31 7 98 -18z m-1534 -54 c16 -23 15 -33 -8 -97 -11 -30
-12 -41 -3 -35 25 16 61 20 67 8 6 -13 -88 -58 -106 -51 -11 4 -9 17 7 63 29
82 30 92 11 102 -19 10 -52 -8 -52 -27 0 -6 -6 -9 -14 -6 -9 3 -12 12 -8 22
16 44 81 57 106 21z m1797 -63 c2 -12 1 -26 -2 -127 -2 -56 -5 -66 -19 -62
-11 3 -16 13 -14 28 2 19 -6 28 -38 45 -36 19 -43 19 -62 6 -13 -8 -28 -11
-35 -6 -9 5 11 27 65 73 73 60 102 72 105 43z m-1997 -100 c19 -39 20 -60 6
-86 -30 -56 -98 -49 -135 14 -30 52 -31 75 -5 109 39 49 101 32 134 -37z
m2196 -4 c0 -5 -77 -140 -86 -151 -2 -2 -10 -1 -19 2 -12 5 -8 18 25 69 22 35
43 71 46 80 5 15 34 15 34 0z m-1052 -77 c46 -3 93 -8 105 -11 12 -2 39 -6 62
-9 210 -31 476 -136 683 -271 188 -123 300 -228 479 -448 21 -26 123 -184 123
-191 0 -3 10 -22 23 -43 66 -104 158 -371 183 -526 3 -21 8 -48 10 -60 31
-153 19 -534 -22 -668 -3 -10 -8 -30 -11 -45 -6 -35 -9 -44 -15 -63 -3 -8 -20
-58 -38 -110 -18 -52 -45 -121 -60 -152 -15 -31 -25 -59 -22 -62 3 -4 0 -6 -6
-6 -6 0 -14 -10 -18 -22 -11 -37 -111 -193 -176 -276 -58 -74 -228 -248 -299
-305 -145 -118 -429 -271 -579 -313 -111 -31 -245 -63 -285 -68 -27 -4 -80
-10 -118 -14 -73 -9 -334 -7 -382 2 -16 4 -50 9 -75 12 -205 25 -532 150 -718
276 -167 113 -322 255 -446 408 -80 99 -214 334 -256 448 -11 31 -23 64 -27
72 -9 22 -10 26 -38 125 -82 292 -89 629 -18 900 8 33 17 70 19 82 2 12 9 35
15 50 6 16 12 35 14 43 7 35 50 138 95 228 90 183 227 370 367 502 115 108
132 122 193 166 30 21 57 41 60 45 10 12 118 71 235 128 104 51 232 100 300
116 11 2 40 9 65 16 61 15 79 18 120 25 19 3 46 7 60 10 14 2 72 7 130 10 58
3 106 7 107 8 2 2 74 -2 161 -9z m-1410 -33 c9 -17 8 -72 -2 -98 -8 -21 14
-17 39 6 19 17 24 18 34 7 9 -11 1 -21 -41 -51 -68 -47 -76 -35 -52 84 2 14
-2 34 -9 45 -14 18 -16 18 -44 -14 -23 -25 -32 -29 -36 -18 -3 8 1 25 10 37
30 42 80 43 101 2z m2612 -75 c0 -89 0 -91 17 -67 10 14 30 39 45 55 23 25 30
27 38 15 5 -8 6 -17 2 -20 -4 -3 -27 -30 -52 -60 -25 -30 -49 -58 -55 -62 -20
-14 -28 13 -28 92 1 44 -3 80 -8 80 -5 0 -9 -3 -9 -7 0 -5 -16 -26 -34 -48
-26 -30 -37 -37 -46 -29 -8 8 -7 15 4 27 9 9 16 20 16 26 0 6 4 11 8 11 5 0
23 20 41 45 48 66 61 54 61 -58z m-3008 -233 c-24 -29 -29 -41 -20 -51 15 -19
28 -16 50 12 18 23 48 34 48 17 0 -4 -12 -20 -26 -35 -25 -27 -25 -29 -8 -48
17 -19 18 -19 54 22 28 32 38 38 43 27 3 -10 -10 -34 -37 -64 l-42 -47 -44 39
c-99 88 -94 82 -79 101 46 58 73 83 82 74 6 -6 -2 -23 -21 -47z m3312 36 c0
-8 -8 -31 -17 -50 -8 -19 -25 -57 -36 -83 -22 -51 -47 -56 -36 -8 4 21 -1 33
-29 60 -28 27 -38 32 -49 22 -11 -9 -17 -8 -27 4 -15 19 -22 15 70 47 83 29
126 31 124 8z m192 -226 c25 -42 25 -46 10 -69 -9 -14 -25 -25 -36 -25 -11 0
-20 -6 -20 -12 -1 -43 -49 -57 -84 -25 -14 13 -26 27 -26 31 0 4 -7 14 -15 23
-9 8 -14 20 -12 26 5 16 139 107 149 101 4 -3 20 -25 34 -50z m-3655 -12 c13
-10 35 -23 49 -30 47 -24 74 -52 62 -64 -7 -7 -19 -4 -40 11 l-30 21 -21 -34
c-27 -43 -26 -50 4 -66 25 -13 35 -40 15 -40 -11 0 -51 21 -60 31 -3 3 -23 16
-45 29 -47 28 -58 42 -43 52 7 3 24 -2 39 -13 15 -10 29 -19 32 -19 3 0 16 16
28 36 l22 37 -21 18 c-12 9 -28 19 -34 21 -12 4 -3 28 11 28 5 0 19 -8 32 -18z
m3782 -206 c4 -9 -15 -24 -59 -46 -35 -17 -64 -37 -64 -43 1 -7 7 -23 15 -37
18 -32 18 -40 1 -40 -14 0 -56 70 -56 93 0 10 131 85 151 87 4 0 9 -6 12 -14z
m-3958 -46 c3 -5 1 -19 -5 -30 -10 -18 -6 -22 37 -42 26 -13 50 -26 53 -29 3
-3 13 -8 22 -12 10 -4 15 -12 12 -21 -6 -15 -28 -8 -110 36 -33 18 -46 14 -58
-16 -5 -15 -9 -17 -18 -8 -9 9 -5 26 17 72 30 60 39 68 50 50z m4091 -217 c20
-44 22 -58 12 -64 -9 -6 -17 1 -27 24 -8 17 -15 35 -15 39 -2 15 -16 19 -35 8
-19 -10 -20 -13 -8 -38 12 -24 13 -34 8 -58 -3 -16 -29 19 -35 46 -6 30 -20
37 -45 21 -11 -7 -11 -16 4 -55 18 -46 16 -64 -4 -52 -9 6 -55 117 -49 121 7
4 154 63 161 64 4 0 19 -24 33 -56z m9 -1118 c17 -3 48 -8 70 -11 44 -6 68
-23 57 -40 -4 -6 -37 -26 -74 -44 -37 -19 -65 -37 -62 -41 2 -4 27 -10 54 -14
27 -4 52 -11 56 -16 13 -22 -10 -25 -78 -12 -40 8 -80 16 -88 17 -33 6 -12 33
52 66 38 19 68 40 68 46 0 7 -25 15 -55 19 -45 5 -55 10 -55 25 0 11 5 17 13
15 6 -2 26 -7 42 -10z m-4147 -190 c-3 -4 -34 -11 -92 -21 -16 -3 -40 -10 -53
-15 -18 -7 -25 -5 -30 7 -3 8 -4 16 -2 18 2 2 42 12 89 23 71 16 86 17 88 6 2
-8 2 -16 0 -18z m44 -137 c3 -7 -15 -44 -39 -82 -24 -37 -42 -70 -40 -72 2 -2
29 5 60 15 37 13 59 16 63 10 9 -15 -4 -24 -61 -44 -133 -46 -143 -39 -79 60
24 38 42 70 40 72 -1 2 -28 -6 -59 -16 -37 -13 -59 -16 -63 -10 -10 16 5 25
86 52 89 31 87 30 92 15z m4086 -21 c33 -16 48 -81 29 -123 -23 -47 -64 -65
-113 -48 -93 32 -90 157 4 183 28 8 42 6 80 -12z m-105 -306 c45 -21 57 -34
38 -45 -4 -3 -45 12 -89 34 -58 28 -80 43 -76 53 4 12 11 12 42 -3 20 -10 58
-27 85 -39z m-3855 16 c7 -9 3 -28 -15 -67 -31 -68 -44 -100 -39 -100 9 0 92
46 97 54 8 10 29 -1 29 -14 0 -10 -138 -90 -156 -90 -23 0 -22 27 2 76 13 27
28 61 33 77 l10 27 -55 -30 c-50 -28 -74 -32 -74 -11 0 5 30 24 66 42 36 19
68 37 71 42 6 11 19 9 31 -6z m3695 -83 c3 -4 -1 -16 -9 -29 -13 -20 -13 -24
1 -35 8 -7 15 -9 15 -6 0 4 15 -4 33 -17 17 -13 40 -27 50 -30 18 -7 24 -37 7
-37 -5 0 -32 14 -60 30 -28 17 -55 30 -60 30 -6 0 -10 6 -10 13 -1 6 -8 -1
-16 -16 -8 -16 -20 -27 -25 -25 -15 5 -12 17 22 76 28 50 38 59 52 46z m-118
-219 c11 -8 41 -31 68 -50 26 -20 47 -40 47 -45 0 -21 -19 -17 -51 10 -19 16
-40 29 -46 30 -7 0 -13 4 -13 8 0 5 -11 15 -25 22 -26 14 -34 40 -12 40 7 0
22 -7 32 -15z m-3377 -20 c39 -33 48 -74 27 -119 -22 -45 -61 -62 -110 -46
-67 22 -89 94 -49 155 26 40 91 45 132 10z m3278 -97 c-16 -23 -15 -24 41 -75
42 -37 55 -55 47 -63 -7 -7 -17 -5 -35 11 -13 11 -39 34 -58 50 l-34 29 -23
-21 c-29 -27 -44 -6 -16 24 10 12 32 36 48 54 32 35 56 29 30 -9z m-3122 -174
c-13 -35 -24 -66 -24 -68 0 -2 30 9 68 24 37 16 71 25 76 20 12 -12 0 -27 -31
-35 -15 -3 -30 -10 -33 -14 -3 -4 -28 -17 -57 -28 -39 -16 -54 -18 -61 -10
-10 14 -9 23 7 62 14 35 26 69 41 109 8 23 13 26 24 16 13 -10 11 -21 -10 -76z
m2924 -27 c-29 -26 -35 -35 -27 -49 13 -23 19 -23 53 7 52 45 66 22 16 -25
-35 -33 -36 -36 -11 -50 16 -8 25 -4 51 20 35 33 50 38 50 16 0 -13 -78 -86
-92 -86 -3 0 -32 30 -64 66 l-59 67 49 44 c36 32 52 41 60 33 8 -8 1 -20 -26
-43z m-2624 -135 c4 -8 -31 -192 -38 -200 -11 -11 -26 12 -22 33 6 35 -56 82
-88 67 -15 -7 -28 -7 -37 0 -8 5 -10 11 -4 14 6 3 42 24 80 49 68 42 99 53
109 37z m2452 -15 c19 -7 44 -45 44 -67 0 -5 -16 -26 -36 -45 -34 -34 -35 -37
-19 -55 9 -10 12 -21 7 -24 -15 -9 -41 4 -47 24 -3 10 -16 30 -29 45 -36 42
-53 78 -40 82 6 2 25 14 43 27 33 24 39 25 77 13z m-2233 -124 c28 -15 55 -32
59 -37 11 -17 -10 -32 -24 -18 -17 17 -32 15 -43 -6 -6 -10 -21 -40 -34 -65
-14 -26 -28 -47 -32 -47 -22 0 -17 26 15 83 28 49 33 66 24 75 -7 7 -18 12
-25 12 -14 0 -17 12 -6 23 9 10 7 10 66 -20z m1994 -61 c51 -109 55 -122 36
-122 -12 0 -26 19 -42 55 -13 31 -26 54 -28 51 -2 -2 -5 -31 -5 -65 -2 -66
-11 -75 -49 -43 -11 9 -30 25 -41 35 -12 9 -23 17 -24 17 -8 0 4 -38 24 -77
17 -33 19 -42 7 -46 -16 -7 -32 16 -67 99 l-26 62 22 10 c20 9 29 5 66 -26 24
-21 45 -35 49 -32 3 3 6 29 8 59 3 51 13 71 38 71 6 0 20 -22 32 -48z m-1840
-95 c-34 -82 -52 -112 -60 -100 -9 15 -2 40 43 138 13 29 25 42 34 39 11 -4 7
-21 -17 -77z m275 -25 c43 -36 26 -130 -27 -154 -60 -27 -145 24 -141 86 5 91
96 128 168 68z m1180 -4 c47 -39 55 -96 20 -144 -51 -69 -172 -26 -172 61 0
52 44 95 97 95 22 0 46 -6 55 -12z m-907 -114 c39 -66 39 -66 47 -38 4 16 9
44 10 62 2 36 8 44 25 34 7 -5 8 -24 2 -62 -5 -30 -10 -70 -11 -87 -3 -49 -30
-42 -67 18 -17 28 -31 55 -31 60 0 5 -4 9 -10 9 -5 0 -10 8 -10 17 0 48 -17
-31 -22 -104 -1 -7 -10 -13 -20 -13 -14 0 -18 5 -14 18 3 9 8 40 11 67 12 98
15 106 34 96 9 -5 34 -40 56 -77z m574 65 c17 -6 31 -15 31 -19 0 -16 -19 -21
-39 -10 -27 14 -68 -3 -83 -34 -13 -29 5 -85 28 -87 8 -1 20 -2 27 -4 6 -1 22
5 35 12 23 14 42 10 42 -8 0 -17 -70 -41 -101 -34 -39 9 -69 49 -69 94 0 43
14 64 55 86 36 18 34 18 74 4z"/>
<path d="M3436 4465 l-30 -24 27 -12 c33 -15 39 -10 35 29 l-3 30 -29 -23z"/>
<path d="M1395 4440 c-21 -23 -14 -64 17 -97 49 -52 101 -4 66 59 -30 52 -59
65 -83 38z"/>
<path d="M2397 4274 c-1 -1 -36 -5 -77 -8 -41 -4 -84 -9 -95 -11 -11 -3 -31
-7 -45 -9 -51 -9 -127 -28 -195 -48 -38 -12 -73 -22 -77 -22 -3 -1 -10 -4 -14
-8 -4 -5 -13 -8 -20 -8 -13 0 -106 -39 -154 -64 -257 -136 -439 -280 -589
-466 -20 -25 -39 -47 -42 -50 -4 -3 -37 -51 -73 -107 -248 -378 -345 -857
-262 -1288 11 -58 14 -70 26 -115 7 -25 13 -49 14 -55 2 -8 19 -64 31 -105 2
-5 5 -14 50 -120 93 -222 260 -448 456 -619 99 -86 100 -87 194 -150 186 -124
469 -235 675 -266 19 -2 62 -9 95 -14 61 -9 363 -8 423 3 18 3 50 8 70 11 70
10 231 49 267 64 11 5 47 19 80 31 269 101 547 302 724 520 20 25 39 47 42 50
22 17 145 217 187 303 45 93 105 246 117 300 2 12 9 42 15 67 7 25 13 54 14
65 3 22 13 75 22 120 10 52 12 357 2 430 -7 58 -37 211 -52 275 -31 125 -144
369 -232 500 -101 152 -238 302 -369 405 -27 22 -52 43 -55 46 -3 3 -9 8 -15
10 -5 2 -43 26 -83 52 -78 52 -238 135 -312 162 -59 22 -131 46 -150 50 -8 1
-35 8 -60 15 -45 12 -57 15 -115 26 -90 17 -187 26 -306 28 -60 1 -111 1 -112
0z m180 -329 c202 -259 222 -530 57 -790 -17 -28 -48 -70 -68 -93 l-36 -44 0
251 c0 235 -1 251 -19 260 -36 20 -41 -5 -43 -265 l-3 -249 -46 60 c-144 188
-196 374 -154 561 22 101 95 247 160 320 6 6 20 23 32 38 36 42 56 34 120 -49z
m-874 -430 c204 -21 369 -132 456 -303 16 -32 39 -94 51 -138 32 -115 35 -120
68 -127 74 -15 157 -71 207 -139 14 -18 18 -20 22 -8 10 26 91 98 133 119 35
17 88 34 112 35 4 1 25 30 46 66 96 165 219 265 374 306 34 8 97 15 142 16
126 0 306 -47 306 -80 0 -26 -53 -120 -105 -187 -163 -206 -375 -272 -649
-200 l-100 26 -61 -22 c-33 -11 -75 -34 -92 -49 -33 -29 -69 -78 -62 -84 2 -2
101 -6 219 -10 216 -6 271 -11 301 -27 9 -4 29 -5 45 -1 35 10 100 8 134 -3
46 -15 79 -48 101 -102 71 -175 -84 -372 -389 -494 -127 -50 -170 -76 -226
-133 -70 -73 -97 -119 -103 -178 -6 -64 9 -105 58 -162 50 -57 199 -250 199
-257 0 -3 -15 -6 -32 -7 -30 -1 -68 24 -68 45 0 5 -10 19 -23 33 -56 62 -177
220 -186 243 -12 31 -8 152 6 187 11 25 85 122 133 171 63 66 91 99 138 161
28 37 54 77 57 90 4 13 11 25 15 28 7 5 45 113 55 156 3 10 13 54 24 97 10 42
16 77 12 78 -3 0 -15 3 -26 5 -11 2 -109 7 -218 9 -110 3 -203 7 -207 10 -5 3
-11 1 -15 -5 -4 -6 -10 -8 -15 -5 -11 7 -35 7 -295 1 -183 -4 -275 -11 -275
-23 0 -13 51 -208 66 -253 3 -8 5 -16 4 -18 -4 -11 92 -169 127 -207 10 -11
49 -56 88 -100 38 -44 76 -86 83 -93 24 -26 69 -97 77 -122 13 -40 12 -127 0
-164 -10 -28 -67 -106 -150 -203 -39 -46 -105 -139 -105 -148 0 -6 -9 -16 -20
-22 -15 -10 -22 -10 -34 3 -14 14 -14 18 0 47 15 28 127 183 143 197 3 3 24
28 46 55 21 28 42 52 46 55 14 12 26 69 22 114 -6 71 -12 82 -143 226 -32 36
-69 79 -81 95 -13 17 -30 36 -37 44 -53 55 -136 235 -156 336 -2 11 -9 40 -16
65 -7 25 -14 53 -16 63 -2 10 -6 26 -9 36 -9 29 19 53 71 62 27 4 144 11 259
15 116 4 212 8 214 10 8 7 -52 76 -87 99 -55 35 -125 53 -237 59 -118 7 -105
5 -220 38 -169 50 -312 217 -366 426 -42 164 -38 168 164 147z"/>
<path d="M3113 2641 c-31 -14 -33 -18 -49 -99 -1 -7 -13 -46 -25 -85 -12 -40
-23 -77 -25 -84 -5 -25 -78 -160 -106 -196 l-30 -37 83 35 c45 19 107 49 137
67 65 40 164 133 186 176 38 74 27 176 -25 214 -32 24 -103 29 -146 9z"/>
<path d="M4073 4000 c-28 -11 -29 -22 -5 -43 17 -16 19 -14 34 18 16 37 11 41
-29 25z"/>
<path d="M4277 3803 c-12 -11 -8 -31 9 -47 23 -23 44 -20 44 7 0 35 -33 60
-53 40z"/>
<path d="M4211 3761 c-11 -7 -10 -15 8 -45 19 -30 26 -34 42 -26 18 10 18 12
2 45 -17 36 -28 41 -52 26z"/>
<path d="M4496 1824 c-9 -8 -16 -18 -17 -22 0 -4 -2 -15 -4 -24 -5 -25 40 -68
69 -68 56 0 85 84 40 117 -24 18 -69 16 -88 -3z"/>
<path d="M744 1223 c-49 -40 -32 -104 30 -115 22 -5 34 0 52 20 29 30 30 52 7
80 -25 30 -63 36 -89 15z"/>
<path d="M1222 760 l-33 -18 28 -22 28 -22 8 38 c4 20 6 38 5 39 -2 2 -18 -5
-36 -15z"/>
<path d="M3687 762 c-33 -20 -33 -22 -4 -56 23 -26 23 -26 45 -8 47 41 12 96
-41 64z"/>
<path d="M1865 491 c-37 -11 -54 -26 -58 -51 -4 -24 10 -69 22 -71 47 -9 65
-6 88 17 15 15 22 31 19 40 -3 9 -6 22 -6 29 0 19 -42 42 -65 36z"/>
<path d="M3026 457 c-27 -20 -29 -70 -5 -96 41 -44 109 -16 109 46 0 53 -60
82 -104 50z"/>
</g>
</svg>
