<svg width="2647" height="2634" viewBox="0 0 2647 2634" fill="none" xmlns="http://www.w3.org/2000/svg">
<g clip-path="url(#clip0_729_69)">
<path d="M1322.77 1064.62L1282.77 1013.9L1254.2 963.191L1237.06 912.471L1231.35 861.751L1237.06 811.031L1254.2 760.321L1282.77 709.601L1322.77 658.881L1362.77 709.601L1391.34 760.321L1408.48 811.031L1414.19 861.751L1408.48 912.471L1391.34 963.191L1362.77 1013.9L1322.77 1064.62Z" fill="#03593A"/>
<path d="M1410.63 1498.16C1426.64 1476.1 1459.07 1456.37 1507.91 1438.96C1559.24 1420.67 1601.98 1394.29 1636.14 1359.82C1670.3 1325.35 1682.15 1290.05 1671.7 1253.91C1661.25 1217.77 1636.09 1202.44 1596.24 1207.89C1570.02 1211.48 1555.42 1222.66 1552.44 1241.45" stroke="#03593A" stroke-width="27.56" stroke-linecap="round" stroke-linejoin="round"/>
<path d="M1234.91 1498.16C1218.9 1476.1 1186.47 1456.37 1137.63 1438.96C1086.3 1420.67 1043.56 1394.29 1009.4 1359.82C975.24 1325.35 963.39 1290.05 973.84 1253.91C984.29 1217.77 1009.44 1202.44 1049.3 1207.89C1075.52 1211.48 1090.12 1222.66 1093.1 1241.45" stroke="#8BC056" stroke-width="27.56" stroke-linecap="round" stroke-linejoin="round"/>
<path d="M1479.54 1768.86C1471.71 1753.45 1457.63 1733.11 1437.28 1707.85C1417.12 1682.82 1396.96 1657.8 1376.8 1632.77C1369.55 1623.77 1365.92 1610.48 1365.92 1592.92C1365.92 1575.36 1367.6 1561.69 1370.95 1551.93C1374.3 1542.17 1387.13 1524.69 1409.44 1499.51C1429.15 1477.26 1448.86 1455.01 1468.57 1432.76C1485.68 1413.45 1501.18 1389.84 1515.08 1361.95C1528.98 1334.05 1543.63 1283.32 1559.03 1209.74" stroke="#03593A" stroke-width="27.56" stroke-linecap="round" stroke-linejoin="round"/>
<path d="M1442.52 1104.19C1514.37 956.92 1627.25 911.38 1781.17 967.59C1709.33 1114.86 1596.44 1160.39 1442.52 1104.19Z" stroke="#02472C" stroke-width="27.56" stroke-linecap="round" stroke-linejoin="round"/>
<path d="M1442.52 1104.19L1471.39 1053.73L1504.1 1012.81L1540.66 981.432L1581.07 959.592L1625.32 947.282L1673.42 944.512L1725.37 951.292L1781.17 967.602L1752.3 1018.05L1719.59 1058.97L1683.03 1090.36L1642.62 1112.2L1598.37 1124.5L1550.27 1127.27L1498.32 1120.5L1442.52 1104.19Z" fill="#03593A" stroke="#03593A" stroke-width="27.56" stroke-miterlimit="10"/>
<path d="M1203.02 1104.19C1180.29 941.91 1087.05 863.67 923.29 869.47C946.02 1031.75 1039.26 1109.99 1203.02 1104.19Z" stroke="#02472C" stroke-width="27.56" stroke-linecap="round" stroke-linejoin="round"/>
<path d="M1203.02 1104.19L1144.92 1102.43L1093.42 1092.78L1048.54 1075.26L1010.27 1049.86L978.61 1016.58L953.56 975.421L935.12 926.391L923.29 869.471L981.4 871.231L1032.89 880.881L1077.77 898.401L1116.04 923.801L1147.71 957.081L1172.75 998.241L1191.19 1047.27L1203.02 1104.19Z" fill="#03593A" stroke="#03593A" stroke-width="27.56" stroke-miterlimit="10"/>
<path d="M1322.77 1064.62C1444.66 929.381 1444.66 794.131 1322.77 658.891C1200.88 794.131 1200.88 929.381 1322.77 1064.62Z" stroke="#03593A" stroke-width="27.56" stroke-linecap="round"/>
<path d="M1322.77 1197.38V861.75" stroke="#8BC056" stroke-width="27.56" stroke-linecap="round" stroke-linejoin="round"/>
<path d="M1166 1768.86C1219.48 1774.7 1271.74 1777.61 1322.77 1777.61C1373.8 1777.61 1426.05 1774.69 1479.54 1768.86" stroke="#8BC056" stroke-width="27.56" stroke-linecap="round" stroke-linejoin="round"/>
<path d="M1087.32 1213.55C1102.42 1285.07 1116.81 1334.53 1130.46 1361.94C1144.36 1389.84 1159.87 1413.44 1176.97 1432.75C1196.68 1455 1216.39 1477.25 1236.1 1499.5C1258.41 1524.69 1271.24 1542.16 1274.59 1551.92C1277.94 1561.68 1279.62 1575.35 1279.62 1592.91C1279.62 1610.47 1275.99 1623.76 1268.74 1632.76C1248.58 1657.79 1228.42 1682.81 1208.26 1707.84C1187.91 1733.11 1173.82 1753.44 1166 1768.85" stroke="#03593A" stroke-width="27.56" stroke-linecap="round" stroke-linejoin="round"/>
<path d="M1559.12 1208.72C1544.23 1200.3 1465.44 1196.4 1322.77 1197.01C1180.09 1197.01 1101.34 1201.25 1086.52 1209.73C1086.79 1211.01 1087.05 1212.28 1087.32 1213.54" stroke="#03593A" stroke-width="27.56" stroke-linecap="round" stroke-linejoin="round"/>
<path d="M1203.02 1104.19C1265.55 1113.79 1305.47 1144.85 1322.77 1197.38" stroke="#03593A" stroke-width="27.56" stroke-linecap="round" stroke-linejoin="round"/>
<path d="M1442.52 1104.19C1379.99 1113.79 1340.07 1144.85 1322.77 1197.38" stroke="#03593A" stroke-width="27.56" stroke-linecap="round" stroke-linejoin="round"/>
<path d="M1231.44 61.52C1236.27 74.49 1248.1 81.16 1264.11 99.29C1291.73 130.48 1326.44 145.4 1359.35 158.73C1406.55 177.8 1498.63 210.53 1588.16 200.05C1595.75 184.01 1603.35 167.98 1610.94 151.94C1620.98 171.3 1631.01 190.66 1641.05 210.03C1663.06 210.99 1685.07 211.96 1707.08 212.92C1707.45 202.28 1707.02 187.22 1703.03 169.47C1686.88 79.13 1536.07 -5.61999 1388.29 0.290011C1362.43 1.35001 1275.5 18.87 1231.43 61.52H1231.44Z" fill="#FBF4DF"/>
<path d="M1410.42 78.3604C1253.36 43.9404 1089.51 58.8304 941.23 121.01" stroke="#98C667" stroke-width="22.08" stroke-linecap="round" stroke-linejoin="round"/>
<path d="M69.31 1458.64C82.06 1453.25 88.21 1441.14 105.61 1424.35C135.56 1395.39 148.95 1360.07 160.84 1326.6C177.83 1278.61 206.51 1185.19 192.13 1096.2C175.78 1089.31 159.43 1082.43 143.07 1075.54C161.98 1064.67 180.88 1053.8 199.79 1042.93C199.79 1020.9 199.79 998.87 199.79 976.84C189.14 976.94 174.12 978.02 156.56 982.79C67.02 1002.86 -11.07 1157.23 1.29 1304.61C3.47 1330.4 24.78 1416.48 69.31 1458.64Z" fill="#98C667"/>
<path d="M78.32 1279.09C50.79 1437.5 72.82 1600.55 141.41 1745.97" stroke="#005839" stroke-width="22.08" stroke-linecap="round" stroke-linejoin="round"/>
<path d="M1417.19 2570.58C1412.27 2557.64 1400.39 2551.06 1384.24 2533.05C1356.39 2502.06 1321.57 2487.4 1288.57 2474.3C1241.23 2455.57 1148.92 2423.52 1059.46 2434.65C1051.98 2450.74 1044.51 2466.83 1037.03 2482.92C1026.85 2463.63 1016.68 2444.34 1006.5 2425.06C984.48 2424.26 962.47 2423.46 940.45 2422.65C940.16 2433.3 940.7 2448.35 944.82 2466.07C961.62 2556.29 1113.05 2639.94 1260.78 2632.94C1286.64 2631.69 1373.43 2613.54 1417.19 2570.57V2570.58Z" fill="#005839"/>
<path d="M1238.09 2555.06C1395.4 2588.33 1559.14 2572.24 1706.96 2508.98" stroke="#98C667" stroke-width="22.08" stroke-linecap="round" stroke-linejoin="round"/>
<path d="M2586.62 1222.7C2573.61 1227.43 2566.85 1239.2 2548.6 1255.07C2517.19 1282.45 2502 1317.04 2488.41 1349.84C2468.97 1396.89 2435.52 1488.71 2445.29 1578.32C2461.27 1586.04 2477.24 1593.76 2493.22 1601.48C2473.78 1611.36 2454.34 1621.25 2434.9 1631.13C2433.76 1653.13 2432.63 1675.13 2431.49 1697.13C2442.13 1697.58 2457.19 1697.27 2474.97 1693.42C2565.43 1677.99 2651.37 1527.85 2646.62 1380.03C2645.77 1354.16 2628.93 1267.1 2586.63 1222.7H2586.62Z" fill="#98C667"/>
<path d="M2568.38 1401.54C2604.03 1244.76 2590.43 1080.79 2529.42 932.029" stroke="#FBF4DF" stroke-width="22.08" stroke-linecap="round" stroke-linejoin="round"/>
</g>
<defs>
<clipPath id="clip0_729_69">
<rect width="2646.8" height="2633.37" fill="white"/>
</clipPath>
</defs>
</svg>
